<?xml version="1.0" standalone="no"?>
<!DOCTYPE svg PUBLIC "-//W3C//DTD SVG 1.1//EN" "http://www.w3.org/Graphics/SVG/1.1/DTD/svg11.dtd" >
<svg xmlns="http://www.w3.org/2000/svg">
<metadata>
This is a custom SVG webfont generated by Font Squirrel.
Copyright   : Copyright c 20012010 by David J Perry httpscholarsfontsnet with Reserved Font Name Cardo  This Font Software is licensed under the SIL Open Font License Version 11  This license is available with a FAQ at httpscriptssilorgOFL
Designer    : David J Perry
Foundry     : David J Perry
Foundry URL : httpscholarsfontsnet
</metadata>
<defs>
<font id="webfontQ5EXXZTZ" horiz-adv-x="1048" >
<font-face units-per-em="2048" ascent="1638" descent="-410" />
<missing-glyph horiz-adv-x="548" />
<glyph unicode=" "  horiz-adv-x="548" />
<glyph unicode="&#x09;" horiz-adv-x="548" />
<glyph unicode="&#xa0;" horiz-adv-x="548" />
<glyph unicode="!" horiz-adv-x="487" d="M129 92q0 20 10 45q9 22 25 37q16 16 34.5 24.5t45.5 8.5q20 0 45 -10q18 -8 37 -27q15 -15 24 -37q8 -18 8 -45t-8 -45q-10 -25 -22 -37q-15 -15 -37 -24q-18 -8 -43 -9q-29 0 -47.5 8.5t-36.5 26.5q-15 15 -25 37q-10 24 -10 47zM137 1425v52q0 14 17 14q2 0 15 1t24 1 h51h37q25 0 36 -2q10 0 17 -2q9 -3 12 -12v-52l-74 -962q-2 -18 -8 -28.5t-20 -10.5q-18 0 -22.5 10t-8.5 29z" />
<glyph unicode="&#x22;" horiz-adv-x="833" d="M133 1329q0 14 10 31q8 14 25 26q12 10 33 17q18 6 39 6q18 0 36 -6q20 -6 33 -17q16 -12 24.5 -26t8.5 -31q0 -39 -8 -94l-8.5 -61.5t-10.5 -73.5q-10 -74 -22 -150q-12 -74 -19 -135h-75q-4 70 -15 135l-12 77t-10 73l-11.5 70.5t-9.5 64.5q-8 55 -8 94zM500 1329 q0 14 10 31q8 14 25 26q10 8 34 17q18 6 37 6t37 -6q20 -6 33 -17q16 -12 24.5 -26t8.5 -31q0 -41 -9 -96l-8 -61.5l-10 -73.5q-10 -72 -22.5 -145.5t-18.5 -135.5h-76q-4 57 -8 86l-12 98q-4 25 -7 49.5t-8 49.5q-8 49 -14 92q-2 8 -6 36.5l-6 43.5q-4 49 -4 57z" />
<glyph unicode="#" horiz-adv-x="1187" d="M2 473l31 121h266l76 350h-279l33 121h272l101 473h127l-101 -473h252l101 473h127l-101 -473h273l-29 -121h-270l-72 -350h276l-28 -121h-275l-106 -508h-133l108 508h-248l-106 -508h-133l108 508h-270zM430 594h248l74 350h-250z" />
<glyph unicode="$" d="M121 217q0 37 22.5 57.5t53.5 20.5q25 0 39 -12.5t24 -34.5q18 -43 21 -49q6 -18 26 -56q16 -31 37 -53q25 -27 59 -45v612q-53 33 -94 66q-51 41 -78 72q-33 39 -51 82q-20 47 -20 98q0 45 18.5 92t48.5 84q37 45 76 68q47 29 100 43v159h56v-147q16 2 53 2q8 0 22.5 -1 t20.5 -1q14 0 47 -4v151h57v-161q29 -6 86 -27q39 -14 78 -39q37 -25 60 -51q23 -29 28 -70q0 -31 -20 -49q-23 -18 -45 -18q-25 0 -45 20q-12 12 -41 49q-10 14 -22.5 29.5t-22.5 30.5q-25 35 -53 55l-3 2v-500q20 -12 25 -14q51 -27 104.5 -66t90.5 -80q31 -33 61 -94 q25 -49 25 -106q0 -71 -25 -129q-23 -55 -66 -101q-37 -41 -96 -69q-55 -29 -119 -43v-209h-57v199l-47 -7q-16 -2 -45 -2q-18 0 -51 4v-194h-56v205q-66 16 -98 30q-55 25 -88 50q-35 27 -65 67q-27 37 -31 84zM279 1049q0 -23 8 -56q6 -20 22 -45q12 -18 39 -41 q43 -39 55 -49v356q-37 -12 -61 -30q-18 -12 -39 -43q-10 -14 -18 -47q-6 -25 -6 -45zM459 27q16 -6 37 -9q29 -4 45 -4q6 0 17 1t15 1q18 0 29 2v523l-70 41l-73 43v-598zM459 817q70 -49 143 -92v494q-14 4 -43 8t-49 4q-23 0 -51 -4v-410zM659 35q78 29 123 88t52 145 q0 35 -13 68q-10 27 -36.5 61.5t-55.5 55.5q-4 4 -29.5 22.5t-40.5 28.5v-469z" />
<glyph unicode="%" horiz-adv-x="1748" d="M1100 410q0 74 24.5 147.5t63.5 130.5q43 61 88 96q47 35 99 35q72 0 127 -37q53 -37 90 -96q37 -61 55 -137t18 -156q0 -88 -18 -151q-25 -82 -57 -135q-35 -55 -91 -95q-49 -35 -116 -34q-59 0 -109 34q-47 35 -90 93q-41 57 -61 120q-23 72 -23 127v58zM1203 393 q0 -94 8 -157q10 -82 28 -125q23 -53 58 -80q41 -31 92 -31q55 0 90 35q37 37 55 90q18 55 25 127q6 70 6 145q0 12 -1 40t-1 42q0 45 -6 88q-8 57 -17 84q-14 47 -32 74q-20 29 -54 49q-35 20 -77 21q-40 0 -68 -19q-27 -18 -47 -51q-23 -37 -33 -72q-8 -25 -16 -86 q-4 -29 -8 -90q-2 -31 -2 -84zM1360 1481h131l-1102 -1536h-129zM84 1043q0 74 24.5 147.5t63.5 130.5q43 61 88 96q47 35 99 35q72 0 127 -37q53 -37 90 -96q37 -61 55 -137t18 -156q0 -88 -18 -151q-25 -82 -57 -135q-35 -55 -91 -95q-49 -35 -116 -34q-59 0 -109 34 q-47 35 -90 93q-41 57 -61 120q-23 72 -23 127v58zM187 1026q0 -94 8 -157q10 -82 28 -125q23 -53 58 -80q41 -31 92 -31q55 0 90 35q37 37 55 90q18 55 25 127q6 70 6 145q0 12 -1 40t-1 42q0 45 -6 88q-8 57 -17 84q-14 47 -32 74q-20 29 -54 49q-35 20 -77 21 q-40 0 -68 -19q-27 -18 -47 -51q-23 -37 -33 -72q-8 -25 -16 -86q-4 -29 -8 -90q-2 -31 -2 -84z" />
<glyph unicode="&#x26;" horiz-adv-x="1521" d="M23 362q0 76 28 140q28 61 80 110q47 45 121 88q70 41 149 72l-63 66q-18 23 -47 67q-20 33 -30.5 74t-10.5 82q0 63 26 108q31 53 70 80q47 33 96 47q51 14 113 15q55 0 98 -17q49 -18 86 -47q39 -29 64 -73q25 -43 24 -99q0 -47 -18 -84q-18 -39 -47 -69 q-23 -25 -66 -58q-37 -28 -73 -49l-9 -4q-2 -2 -2 -8q0 -8 6 -15l13 -12l3 -2q3 -2 7 -5t8 -7q6 -6 14.5 -13.5t16.5 -15.5t16.5 -15t14.5 -13q10 -8 18 -17q4 -2 57 -59q45 -47 142 -170l20 -23q4 -4 6 -4q12 0 15 8l229 346q14 20 19 33q6 16 6 31q0 31 -17 39 q-25 12 -37 14q-8 2 -20 6t-19 4q-16 2 -16 21v12q0 6 10 6h367q4 -8 4 -12v-10q0 -14 -4 -17q-8 -4 -14 -6q-8 -2 -26.5 -3t-27.5 -1q-18 -2 -51 -10q-25 -6 -47 -23q-25 -18 -37 -36l-295 -467l125 -215q20 -39 56 -70q33 -29 81 -29q27 0 39 4l37 13q8 2 20.5 8t14.5 6 l31 12q6 0 6 -10q0 -4 1 -7l1 -3v-10q0 -4 -6 -9q-61 -37 -115 -61q-59 -27 -127 -27q-35 0 -63 13q-33 14 -52 30q-27 23 -45 47q-14 18 -39 56q-20 29 -38 59q-12 20 -41 57q-70 -61 -107 -90q-53 -43 -123 -82q-66 -39 -131 -61q-68 -25 -139 -25q-76 0 -139 33 q-61 33 -113 90q-49 55 -76 123q-28 73 -28 143zM203 373q0 -49 22 -105q20 -51 58 -90q35 -39 86 -63q45 -23 106 -23q45 0 98 17q43 12 95 41q55 29 86 53q55 43 71.5 57t16.5 33v4q0 2 -1 2t-1 2q-133 231 -332 389q-4 4 -27 23q-14 12 -28.5 12t-28.5 -8q-6 -4 -14.5 -8 t-12.5 -7q-39 -23 -77.5 -61.5t-61.5 -77.5q-27 -47 -41 -92t-14 -98zM397 1100q0 -43 11 -74q14 -45 30 -70q18 -29 49 -59q28 -28 62 -49q34 6 61 31q23 20 45 57q20 33 29 65q10 37 10 64q0 43 -8 74q-10 37 -26.5 59.5t-49.5 38.5q-29 14 -73 14q-35 0 -60 -12 q-33 -16 -45 -31q-16 -20 -26 -49q-9 -24 -9 -59z" />
<glyph unicode="'" horiz-adv-x="464" d="M129 1327q0 16 10 33q6 10 25 24q16 12 33 19q18 6 36 6q20 0 39 -6q16 -6 33 -19q18 -14 25 -24q8 -14 8 -33q0 -39 -8 -94q-2 -16 -8.5 -61.5l-10.5 -73.5q-10 -74 -22 -150q-12 -74 -19 -135h-75q-4 70 -15 137l-12 76t-10 72l-11.5 70.5t-9.5 64.5q-8 55 -8 94z" />
<glyph unicode="(" horiz-adv-x="649" d="M170 602q0 137 27 301q23 139 75 295q47 139 123 274.5t172 249.5q2 2 4 5l2 4q2 2 9 2q2 0 14 -9q6 -4 14 -16q6 -10 11 -20q2 -4 4 -9l2 -4q0 -12 -6 -22q-80 -123 -138 -242q-66 -137 -100 -254q-45 -145 -64 -270q-20 -131 -20 -289q0 -287 84 -549q84 -258 238 -493 q6 -12 6 -23q0 -2 -3 -7t-3 -7q-2 -6 -10.5 -18.5t-14.5 -16.5q-12 -8 -14 -8q-6 0 -9 2l-2 3q-2 3 -4 5q-94 111 -170 248q-78 139 -125 274q-53 152 -75 293q-27 164 -27 301z" />
<glyph unicode=")" horiz-adv-x="649" d="M25 -467q0 10 6 23q154 236 237 493q82 254 82 549q0 158 -20 289q-18 125 -64 270q-35 117 -100 254q-61 131 -135 242q-6 10 -6 22l4 13q2 4 12 20q8 12 14 16q12 8 15 9q4 0 6 -2l8 -9q90 -106 170 -249q80 -145 125 -275q49 -144 74 -295q27 -164 26.5 -301 t-26.5 -301q-23 -141 -76 -293q-49 -143 -123 -274q-76 -137 -170 -248l-8 -8q-2 -2 -6 -2q-2 0 -15 8q-6 4 -14 16l-12 19q-4 12 -4 14z" />
<glyph unicode="*" horiz-adv-x="739" d="M41 1337l10 43l252 -39l45 252h43l41 -252l254 35l14 -41l-227 -118l113 -230l-35 -26l-180 182l-185 -178l-36 24l116 228z" />
<glyph unicode="+" d="M88 561v127h375v389h127v-389h371v-127h-371v-385h-127v385h-375z" />
<glyph unicode="," horiz-adv-x="518" d="M121 123q0 20 10 45q6 14 27 35q15 15 37 24q18 8 45 9q39 0 69 -19q23 -14 49 -47q23 -29 31 -64q10 -41 10 -69q0 -37 -14 -88q-10 -35 -35 -78q-20 -35 -55 -70q-20 -20 -70 -57q-4 -2 -14 -9l-16 -11q-20 -10 -31 -11q-8 0 -12 11q-2 6 -2 16t6 16q8 8 14 12.5 t14 12.5q2 2 7 5l6 3l34 35q18 20 35 41q20 29 27 45q10 27 10 49v12q0 6 -4 15q-2 6 -12 10q-8 4 -21 4q-31 0 -55.5 6t-44.5 21q-23 16 -33 36q-12 25 -12 60z" />
<glyph unicode="-" horiz-adv-x="911" d="M86 440v138h741v-138h-741z" />
<glyph unicode="." horiz-adv-x="518" d="M129 102q0 16 12 50q10 27 27 43q20 20 41 28q27 10 51.5 10t50.5 -10q20 -8 41 -28.5t29 -43t8 -49.5q0 -29 -8 -51q-8 -20 -28.5 -40.5t-41.5 -28.5q-23 -8 -51 -9q-25 0 -51 11q-23 8 -41 26.5t-27 40.5q-12 33 -12 51z" />
<glyph unicode="/" horiz-adv-x="663" d="M4 -27l524 1479h131l-526 -1479h-129z" />
<glyph unicode="0" d="M76 600v92q0 83 18 166q20 94 47 160q31 77 74 141q53 80 88 115q49 49 103 78q51 27 104 26q72 0 139 -28q59 -25 115 -78q47 -45 90 -117q43 -74 66 -145q33 -104 41 -166q12 -86 12 -174q0 -92 -15 -172q-18 -100 -40 -164q-29 -82 -68 -144q-43 -70 -88 -114.5 t-111 -75.5q-55 -27 -127 -27q-63 0 -118 27q-51 25 -107 76q-41 39 -90 108q-37 51 -72 133q-31 70 -45 142q-16 78 -16 141zM238 668q0 -143 12 -260q12 -115 47 -201q35 -84 88 -129t145 -45q63 0 106.5 24.5t76.5 69.5q31 43 49 104q25 80 31 131q12 94 14 150 q4 106 4 162q0 20 -1 65t-1 70q0 66 -10 143q-10 84 -27 140q-18 68 -51 116q-33 51 -82 82t-125 31q-63 0 -108 -31q-45 -29 -76 -80q-31 -47 -49 -118q-18 -63 -27 -138q-12 -98 -14 -147t-2 -139z" />
<glyph unicode="1" d="M190 1057q2 2 9 6q14 10 75 57q63 51 91 76q92 86 96 90q46 46 86 92h55q12 0 16 -4q2 -2 3 -14v-1198v-23q0 -4 1 -14t1 -14q0 -10 4 -27q2 -12 8 -14q10 -6 35 -15q14 -4 51 -8q55 -6 57 -6h56q6 0 6 -4l1 -2l1 -2v-25l-1 -2q-1 -2 -1 -4t-6 -2h-603q-8 0 -8 8v25 q0 8 8 8q66 4 86 4q29 0 66 4q18 2 43 6q20 4 31 8q12 8 16 27q2 12 2 47v1065q0 1 -20 -16l-60 -45q-16 -12 -84 -58q-49 -33 -96 -53h-2q0 -2 -2 -2t-2 1t-2 1l-4 4l-10 17z" />
<glyph unicode="2" d="M76 27q0 14 10 30l20 29q55 63 136 143l143 146l139 147q59 63 119 146q49 68 82 141q33 76 33 135q0 51 -25 115q-23 59 -61 100q-41 45 -92.5 71.5t-108.5 26.5q-41 0 -100 -18q-61 -18 -107 -59q-51 -45 -71 -82q-23 -41 -31 -70q-2 -8 -6 -18.5t-6.5 -16.5t-2.5 -12 q-4 -18 -18 -18l-5 -1q-5 -1 -7 -1h-13q-10 0 -10 6q0 2 1 6t3 13l4 18q8 37 20.5 73.5t37.5 83.5q25 49 47 72q47 47 80 70q35 25 80 45q39 18 82 24q39 6 83 6q90 0 164 -30q70 -29 125.5 -84.5t81.5 -124.5q29 -76 29 -158q0 -68 -27 -127q-31 -70 -76 -125 q-49 -61 -120 -127l-156 -139q-2 -2 -11.5 -10.5t-25.5 -24.5q-12 -12 -19.5 -18.5l-18.5 -16.5t-25 -24l-76 -74l-72 -74l-29.5 -29.5t-25.5 -27.5q-20 -23 -21 -29h564q37 0 63 10q23 8 39 31t25 51q4 10 10 36t10 40h39l-43 -270l-6 -19q-6 -10 -17 -14h-831q-6 0 -6 4 v23z" />
<glyph unicode="3" d="M66 131q0 37 24 51q27 16 57 17q14 0 33 -13l43 -30q12 -10 26.5 -20.5t24.5 -18.5q25 -20 58 -39q31 -18 67.5 -30.5t77.5 -12.5q68 2 127 43q53 35 92 94t58 125q20 76 20 131q0 80 -22 137q-22 55 -56 92q-33 35 -78 51.5t-88 16.5q-16 0 -28 -2q-16 -2 -39 -10 q-12 -4 -37 -17q-18 -10 -29 -22l-4 -4q-6 0 -12 8q-8 12 -8 16t6 11q10 10 16 14q2 2 19 14q6 4 12 10l84 72q39 35 76 80q35 45 55.5 88t20.5 100q0 41 -17 72q-18 35 -47 59q-25 23 -66 39q-39 16 -73 17q-66 0 -115 -25q-53 -27 -84 -57q-35 -37 -57 -70l-35 -55 q-4 -2 -8 -2l-3 1q-3 1 -5 1t-11 4q-2 0 -5 1t-5 3q-4 4 -4 6l1 4q3 5 3 6l4 9q27 63 66 112q45 55 92 90q51 39 104.5 59.5t104.5 20.5q66 0 127 -16q53 -14 96 -47q40 -31 61 -74q20 -41 21 -96q0 -66 -35 -125q-37 -63 -88 -115l-22 -16q-8 -6 -16.5 -11.5t-16.5 -11.5 l-29 -22q-12 -9 -12 -13h2h14q2 0 7 1.5t7 1.5q33 0 60 -7q33 -8 45 -12q63 -29 108 -72q45 -45 66 -88q20 -45 31 -96q8 -43 8 -88q0 -68 -23 -135q-20 -63 -61 -119q-41 -57 -90 -100q-57 -51 -107 -78q-53 -31 -114 -49q-51 -16 -113 -17q-39 0 -63 2q-45 4 -72 9 q-49 8 -74 16q-45 14 -67 29q-33 20 -54 43q-24 26 -32 59z" />
<glyph unicode="4" d="M63 416v12q0 2 5 10l622 918q12 18 21 20q6 2 18 2q20 0 29 -2q10 -2 10 -22v-824q0 -16 4 -20t16 -4h166q16 0 23 -2q8 -2 8 -17v-67q0 -25 -18 -25h-183q-12 0 -14 -2t-2 -16v-391q0 -8 -2 -15q-2 -8 -14 -8h-109q-14 0 -16 8q-2 6 -2 15v381q0 4 -1 9t-1 7q0 4 -4.5 8 t-12.5 4h-22h-498q-2 0 -14 4q-9 3 -9 17zM182 518q0 -6 6 -10q4 -2 25 -2h389q12 0 16 6l7 14v553q0 10 -4 27q-2 12 -21 12q-10 0 -16 -6q-4 -4 -7.5 -8t-5.5 -6l-378 -563q-2 -2 -2.5 -4.5t-4.5 -6.5q-2 0 -2 -2t-2 -4z" />
<glyph unicode="5" d="M104 98q0 35 23 56q27 23 53 22q33 0 66 -24q27 -18 65 -52l68 -51q35 -25 70 -24q55 0 102 18q49 20 80 47q37 35 59 70q29 47 41 78q16 45 23 79q8 53 8 70q0 76 -19 131q-18 57 -47 94q-27 33 -67 62q-37 25 -74 37q-41 14 -74 16q-49 4 -61 4q-45 0 -76 -10 q-45 -14 -65 -27q-12 -6 -46 -28l-15 -10q-6 -4 -7 -5q-2 0 -3 -1l-3 -1l-2 -1q-2 -1 -4 -1q-10 0 -11 17l31 673h508q16 0 33 4q10 2 16 9q8 8 10 12l9 16h41l-25 -168h-524q-2 0 -6.5 -1t-8.5 -1q-8 0 -8 -6q0 -2 -1 -13t-1 -22q0 -8 -1 -27.5t-1 -31.5q0 -20 -4 -74 q-2 -27 -2 -76q0 -12 -1 -36.5t-1 -34.5q0 -12 -1 -30.5t-1 -25.5v-12q8 8 26 17q25 10 52 18q25 8 69 14q41 6 80 6q47 0 88 -10q55 -14 99 -33q51 -23 96 -55q49 -35 84 -80q39 -49 59 -104q23 -61 23 -129q0 -94 -25 -168q-25 -72 -63 -127q-43 -57 -90 -92 q-53 -37 -113 -60q-68 -25 -119 -32q-68 -10 -115 -11q-25 0 -43 2q-2 0 -24.5 2.5t-34.5 4.5t-63 16q-41 10 -62 22q-33 18 -47 33q-19 18 -23 45z" />
<glyph unicode="6" d="M80 502q16 104 47 196q31 94 63 158q39 74 91 131q45 51 120 113q49 39 156 108q49 33 199 115q8 6 28 14l41 19q6 4 41 14q18 6 27 6q12 0 16 -2q6 -2 6 -14q0 -8 -20 -23q-18 -14 -53 -30l-60 -33q-16 -8 -47 -29q-23 -14 -59 -41l-74 -55q-16 -12 -76 -68 q-43 -39 -69 -71q-35 -43 -51 -74q-20 -41 -21 -70q9 0 18 6q2 0 25 11q15 6 37 12q14 4 49 4q96 0 180 -37q82 -37 144 -98q57 -57 94 -148q33 -80 33 -180q0 -92 -35 -180q-33 -82 -94 -147q-61 -63 -144 -101q-78 -35 -178 -35q-106 0 -184 45q-82 47 -137 121 q-57 76 -84 170q-29 99 -29 193zM248 444q0 -59 4 -92t20 -94q12 -49 33 -88q20 -41 53 -74q35 -35 72 -51q43 -18 96 -18q74 0 121 34q53 39 82 93q29 51 45 122q14 63 14 134q0 88 -14 159q-14 76 -49 138q-31 55 -94 96q-58 37 -148 37q-70 0 -112.5 -29t-71.5 -84 q-27 -49 -39 -123q-12 -72 -12 -149v-11z" />
<glyph unicode="7" d="M80 969l59 348l6 12q2 8 11 8h796q10 0 19 -6q10 -6 10 -22q0 -2 -1 -9.5t-1 -11.5q0 -16 -2 -24l-6 -25q-2 -4 -5 -12t-3 -10l-560 -1244h-112v23l168 375l125 280l90 203l61 139l39 86l19 47q8 20 8 22.5t2 6.5t2 6q0 4 -6 10q-4 4 -13 5h-550q-16 0 -37 -17 q-18 -16 -25 -33l-53 -153q-2 -12 -8 -15q-8 -4 -15 -4q-8 0 -12 2q-6 3 -6 13z" />
<glyph unicode="8" d="M162 307q0 66 26 135q25 66 74 115q12 12 37 31l49 37q12 10 43 34q18 16 19 21l-1 2q-1 2 -1 4t-5 6q-2 2 -75 80q-43 45 -66 82q-33 49 -47 90q-16 43 -16 109q0 72 24.5 133t65.5 102q45 45 102 68q55 23 135 22q61 0 125 -22q55 -20 105 -62q43 -37 73 -98 q27 -53 27 -123q0 -45 -12 -88q-10 -37 -37 -82q-14 -23 -49 -53q-49 -43 -60 -51q-14 -12 -27.5 -21.5t-23.5 -17.5q-20 -14 -20 -19q0 -6 4 -10q2 -2 5 -4l3 -2l47.5 -38.5t48.5 -43.5q47 -43 78 -86q35 -47 53.5 -102.5t18.5 -130.5q0 -72 -27 -134q-25 -59 -76 -112 q-45 -47 -110 -76q-68 -29 -135 -29q-70 0 -138 25q-74 27 -120 65q-53 43 -84 107q-33 65 -33 137zM289 301q0 -55 18 -108q18 -51 51 -91q35 -41 78 -61q49 -23 103 -23q37 0 71 15q37 16 70 51q33 37 53.5 86t20.5 127q0 28 -13 55q-16 37 -28 56q-25 39 -37 51 q-29 33 -39 43l-8 8t-13.5 12t-13.5 15q-29 33 -47 49q-28 25 -55 43q-29 18 -47.5 18t-32.5 -16l-27 -31q-57 -63 -80 -131q-25 -74 -24 -156v-12zM319 1126q0 -55 21 -96q29 -57 53 -86q31 -35 74 -76q59 -53 82 -71q12 -8 20 -11q16 -4 19 -4q18 0 26 6q6 4 23 21 q31 31 45 55q16 27 31 68q16 43 20 72q8 49 8 69q0 45 -14 98q-12 49 -39 84q-29 39 -67 60q-41 23 -97 22q-51 0 -83.5 -16t-63.5 -47q-29 -29 -43.5 -66t-14.5 -82z" />
<glyph unicode="9" d="M74 903q0 94 28 174q31 86 86.5 153.5t133.5 106.5q82 41 176 41q115 0 198 -41q90 -43 152 -116q63 -76 96 -168t33 -201q0 -141 -45 -262q-47 -127 -125 -225q-76 -96 -189 -181q-108 -80 -233 -135q-12 -6 -59 -24q-31 -12 -68 -25q-39 -12 -72 -18q-37 -6 -77 -7 q-6 0 -7 7q0 10 7 16q2 2 14 10q35 14 137 68q68 35 133 82q65 46 123 98q45 41 102 113l21 28l12 17.5l12.5 17.5t10.5 17.5l8 15.5q8 14 8 20v7q0 2 -8 2q-27 -6 -53.5 -13.5l-48.5 -13.5q-49 -12 -107 -12q-96 0 -168 39q-76 41 -127 104q-49 61 -78 143q-26 78 -26 162z M254 887q0 -66 18 -133q18 -66 58 -121q37 -52 92 -86q57 -35 121 -35q14 0 51 4q23 2 53 10l49 19q25 10 41.5 22.5t30.5 53.5q8 27 16 79q6 43 7 88v74q0 59 -3 94q-2 43 -16 103q-14 63 -29 100q-14 41 -51 84q-31 37 -78 60q-49 23 -106 22q-52 0 -92 -18 q-41 -18 -68 -52q-31 -37 -47 -75q-14 -33 -29 -88q-14 -51 -16 -93q-2 -31 -2 -86v-26z" />
<glyph unicode=":" horiz-adv-x="518" d="M129 102q0 16 12 50q10 27 27 43q20 20 41 28q27 10 51.5 10t50.5 -10q20 -8 41 -28.5t29 -43t8 -49.5q0 -29 -8 -51q-8 -20 -28.5 -40.5t-41.5 -28.5q-23 -8 -51 -9q-25 0 -51 11q-23 8 -41 26.5t-27 40.5q-12 33 -12 51zM129 799q0 16 12 49q10 27 27 43q18 18 41 27 q33 12 51.5 12t50.5 -12q23 -8 41 -27q20 -20 28.5 -43t8.5 -49q0 -29 -8 -51.5t-29 -42.5q-18 -18 -40.5 -26.5t-51.5 -8.5q-25 0 -51 10q-23 8 -41 26.5t-27 41.5q-12 33 -12 51z" />
<glyph unicode=";" horiz-adv-x="518" d="M121 123q0 20 10 45q6 14 27 35q15 15 37 24q18 8 45 9q39 0 69 -19q23 -14 49 -47q23 -29 31 -64q10 -41 10 -69q0 -37 -14 -88q-10 -35 -35 -78q-20 -35 -55 -70q-20 -20 -70 -57q-4 -2 -14 -9l-16 -11q-20 -10 -31 -11q-8 0 -12 11q-2 6 -2 16t6 16q8 8 14 12.5 t14 12.5q2 2 7 5l6 3l34 35q18 20 35 41q20 29 27 45q10 27 10 49v12q0 6 -4 15q-2 6 -12 10q-8 4 -21 4q-31 0 -55.5 6t-44.5 21q-23 16 -33 36q-12 25 -12 60zM129 799q0 16 12 49q10 27 27 43q18 18 41 27q33 12 51.5 12t50.5 -12q23 -8 41 -27q20 -20 28.5 -43t8.5 -49 q0 -29 -8 -51.5t-29 -42.5q-18 -18 -40.5 -26.5t-51.5 -8.5q-25 0 -51 10q-23 8 -41 26.5t-27 41.5q-12 33 -12 51z" />
<glyph unicode="&#x3c;" d="M172 588v71l705 410v-147l-508 -295l508 -303v-154z" />
<glyph unicode="=" d="M88 391v127h870v-127h-870zM88 731v127h870v-127h-870z" />
<glyph unicode="&#x3e;" d="M174 170v154l506 303l-506 295v147l700 -414v-69z" />
<glyph unicode="?" horiz-adv-x="776" d="M90 1329q0 29 19 47q18 16 45 27q18 6 57 10q18 2 49 2q82 0 156 -29q72 -27 125 -81q51 -51 81.5 -123t30.5 -156q0 -59 -18 -113q-20 -57 -49 -100q-27 -39 -76 -82q-41 -35 -96 -61q-27 -14 -58 -23q-33 -10 -59 -24q-29 -16 -47.5 -37t-18.5 -58q0 -20 7 -39 q2 -6 18 -38q6 -10 10 -20.5t8 -18.5q10 -23 17 -41q0 -4 -8.5 -8.5t-10.5 -4.5q-8 0 -20 13q-6 6 -23 35q-8 14 -24 47q-8 16 -21 53l-16 49q-6 25 -6 41q0 47 10 72q14 35 33 53q25 25 47 37q29 16 55 26q41 16 63.5 22.5t63.5 22.5q20 8 62 37q29 20 55 54q29 35 41 65 q14 35 14 74q0 61 -24 98q-25 39 -74 60q-51 23 -127 28q-102 8 -182 8l-37 7q-20 4 -35 12q-20 12 -27 22q-10 17 -10 35zM154 90q0 25 8 43q9 22 24.5 37t36.5 25q25 10 45.5 10t44.5 -10q18 -8 35 -25q15 -15 25 -37q10 -25 10 -43q0 -20 -10 -45q-9 -22 -25 -37 q-20 -20 -35 -26q-18 -8 -44.5 -8.5t-45 8t-37.5 26.5q-15 15 -24 37q-8 18 -8 45z" />
<glyph unicode="@" horiz-adv-x="1990" d="M150 446q0 123 32 254q31 127 88 234q58 111 142 203q86 96 182 159q94 63 219 103q123 39 248 39q115 0 223 -29q113 -29 186 -74q80 -47 148 -114q53 -53 104 -146q41 -72 64 -164q23 -90 22 -176q0 -100 -22 -200q-18 -82 -64 -173q-40 -80 -92 -141 q-55 -66 -114 -106q-70 -49 -130 -68q-72 -23 -133 -22q-39 0 -63 2q-37 2 -68 14q-37 12 -55 35q-23 27 -23 67q0 43 3 58q2 8 5 22.5t3 18.5q2 6 5 18t3 16q2 6 3 17.5t1 17.5v11q0 6 -6 6q-8 0 -23 -13q-4 -2 -39 -32q-12 -12 -28.5 -25.5t-30.5 -26.5l-66 -57 q-43 -37 -69 -55q-31 -23 -63.5 -39.5t-49.5 -16.5q-39 0 -59 29q-25 35 -35 72q-14 47 -16 86q-4 57 -4 69q0 45 12 94.5t31 92.5q43 102 116 192q78 94 166 154q90 61 205 100q108 37 221 37q12 0 14 -8q2 -6 3 -18l-152 -693v-16q0 -2 -1 -7t-1 -7v-11q0 -59 32.5 -92 t88.5 -33q61 0 112 27q57 31 100.5 74t84.5 106q43 66 67 127q25 57 41 137q16 76 17 136q0 129 -43 241q-45 121 -127 205q-86 90 -209 143q-126 55 -295 62q-123 -4 -227 -39q-117 -39 -201 -96q-96 -66 -168 -148q-86 -100 -129 -184q-55 -109 -82 -215 q-29 -119 -29 -234q0 -182 64 -329q63 -150 176 -258q109 -106 264 -168q154 -61 332 -62q139 0 254 39t211 111q102 76 168 170q74 106 121 223h75q-53 -135 -129 -240q-82 -115 -182 -190q-102 -78 -236 -129q-125 -47 -282 -57q-139 0 -248 28q-119 31 -219 86 q-96 53 -182 135q-83 80 -142 179q-57 94 -88 215q-32 124 -32 247zM713 330q0 -31 2 -49q4 -35 10 -52q10 -27 25 -39q20 -16 49 -16q39 0 67 21q31 23 64 51q29 27 69 73q37 43 86 87l101 454q0 10 -10 14q-6 2 -19 3q-37 0 -98 -15q-52 -12 -98 -37q-43 -23 -87 -59 q-41 -35 -65 -78q-51 -82 -72 -172q-16 -73 -24 -186z" />
<glyph unicode="A" horiz-adv-x="1456" d="M4 8v25q0 8 8 8q12 0 45 4q23 2 51.5 18.5t53.5 42.5q18 20 41 80l407 1180q2 0 2 2v4q0 8 -6 16.5t-6 16.5q0 4 4 4h201h6l4 -6l424 -1188q6 -12 22.5 -49t18.5 -41q10 -16 30.5 -32.5t49.5 -29.5q4 -2 16.5 -7l22.5 -9q16 -6 45 -6q6 0 6 -4l1 -2q1 -2 1 -4v-23l-1 -2 q-1 -2 -1 -4t-6 -2h-613q-6 0 -6 2l-2 6v25l1 2l1 2q0 4 6 4h9h6q4 0 13 1t18 1q12 0 44.5 4t49.5 8q29 6 45 15q18 8 33 28q12 18 12 41q0 8 -2 15l-152 426q0 6 -2 10q-6 12 -8 14q-8 8 -14 12q-10 6 -21 7h-354q-12 0 -23 -7q-12 -8 -16 -12q-2 -2 -8 -14l-4 -8 l-150 -439v-10q0 -4 2 -8q10 -29 29 -41q27 -18 49 -27q37 -12 59 -14q20 -2 52 -2h26q6 0 6 -4l1 -2l1 -2v-25l-1 -2q-1 -2 -1 -4t-6 -2h-512q-8 0 -8 8zM518 748q0 -8 2 -11q4 -4 12 -4h295q8 0 15 6q4 4 4 11v8q0 2 -4 10l-150 410q-8 27 -14 26q-4 0 -8 -8q-2 -4 -4 -9 t-4 -11l-140 -408q-4 -8 -4 -10v-10z" />
<glyph unicode="B" horiz-adv-x="1390" d="M10 8v25l1 2l1 2q0 4 6 4q29 0 48 2q4 0 26.5 2t34.5 4q16 2 66 17q35 10 59 24q31 18 43 37q16 23 16 49v1055q-2 47 -20 80q-16 29 -39 43q-20 12 -57 16q-45 4 -72 4h-57q-6 0 -7 2l-1 2q-1 2 -1 4v25q0 2 1 2t1 2q0 4 7 4h10h35q6 0 27.5 1t35.5 1h109h41q8 0 28.5 1 t32.5 1q10 0 35.5 2t38 2t37 1t34.5 1q12 0 34 1t30 1h45q72 0 113 -2q53 -2 125 -16q55 -10 124 -35q57 -20 107 -59q46 -37 74 -92q29 -57 28 -133q0 -49 -14 -84q-15 -37 -37 -68q-14 -20 -49 -51l-16.5 -12.5t-18.5 -12.5t-14 -10q-23 -16 -39 -23l-8 -4t-7 -3l-3 -1 q39 -20 108 -69q41 -29 90 -86q40 -46 62 -105q23 -61 22 -125q0 -84 -20 -143q-20 -61 -60 -109q-39 -49 -82 -78q-39 -27 -96 -51q-47 -20 -96 -32q-29 -8 -88 -17q-40 -6 -68 -6h-37h-721q-6 0 -6 2t-1 3zM510 860q0 -4 2 -10q2 -8 20 -8h246q47 0 90 18q39 16 72 53 q29 31 47 76q18 43 19 94q0 76 -25 131q-25 53 -68 89q-45 35 -104 51q-61 16 -129 16q-35 -2 -86 -2q-39 0 -51 -2q-18 -4 -27 -14q-6 -8 -6 -33v-459zM512 221q0 -43 18 -67q23 -29 52 -50q31 -23 69 -30q45 -10 76 -11q68 0 135 29q57 25 111 78q47 47 76 113 q29 68 28 135q0 86 -30 153q-29 63 -84 113q-53 47 -125 71.5t-156 24.5h-158q-12 0 -12 -4v-8v-547z" />
<glyph unicode="C" horiz-adv-x="1564" d="M104 696.5q0 108.5 29 210.5q29 104 80 184t123 150t158 115q88 47 188 71q101 25 209 25q86 0 178 -16q39 -6 176 -39q10 -2 31 -11q8 -2 15 -4t16 -6q25 -10 26 -10q16 -4 19 -4q1 0 5 1q5 2 9 3l16 4h31q12 0 12 -16v-312q0 -4 -4 -8q-2 -2 -20 -2h-8q-4 0 -9 6l-4 9 q-4 10 -6 14q-2 2 -4 6t-4 6q-4 8 -4 10q-72 143 -191 226q-113 76 -264 75q-145 0 -252 -49q-111 -51 -182 -131q-76 -86 -113 -200q-39 -123 -38 -250q0 -86 20 -185q18 -88 55 -168q41 -88 90 -145q61 -72 125 -113q72 -47 156 -73q82 -27 188 -27q80 0 160 29 q77 28 141 73q61 45 112.5 104.5t84.5 121.5l4 6h8h13q4 0 6 -2q4 -4 4 -10v-9q0 -4 -6 -14l-137 -303l-7 -6q-2 -2 -8 -2q-29 8 -31 8h-20q-27 0 -78 -10l-102 -23q-74 -16 -111 -22q-61 -10 -102 -11q-102 0 -205 23q-88 18 -184 67q-96 47 -160 107q-78 72 -125 143 q-51 80 -80 176q-29 99 -29 207.5z" />
<glyph unicode="D" horiz-adv-x="1662" d="M45 8v29v4q0 2 8 2h23q10 0 51 4q35 4 59 14q31 14 50 35q20 23 20 64v1095q0 31 -12.5 53.5t-34.5 34.5q-29 16 -45.5 20.5t-46.5 4.5h-64q-8 0 -8 4v4v29v4q0 4 8 4h23l319 6q39 2 127 2h125h113q4 0 96 -6l92 -12q51 -6 107 -19q102 -20 205 -86q96 -63 165 -149 q68 -86 109 -195q41 -111 41 -219t-31 -205q-29 -92 -84 -178q-51 -82 -127 -147.5t-162 -110.5t-186 -69q-98 -25 -203 -25h-729q-8 0 -8 4v4zM453 125q0 -31 18 -45q20 -16 49 -23q51 -10 72 -10h86q162 0 285 45q125 45 215 133q92 88 137 213q47 129 47 281 q0 138 -43 258q-41 117 -123 207q-78 86 -192 139q-111 51 -254 51h-273q-14 0 -20 -6q-4 -4 -4 -20v-1223z" />
<glyph unicode="E" horiz-adv-x="1263" d="M6 8v29q2 2 2 4t6 2h23q57 4 86 4q31 0 80 12q39 10 59 37q23 29 23 82v1055q0 37 -17 63q-14 23 -40.5 39.5t-59.5 22.5l-68 12h-20q-6 0 -6 2l-1 2q-1 2 -1 4v25q0 2 1 2t1 2t6 2h950q18 0 27 -6q6 -4 10 -29l18 -289q0 -4 -6 -8q-4 -2 -12 -2t-10 2l-4 2q-4 2 -4 4 q-8 10 -11 29l-6 43q-2 20 -10 51q-6 27 -18.5 47.5t-36.5 38.5q-23 16 -58 23h-415q-14 0 -15 -12v-519q0 -10 10 -10h347q16 0 49 8q27 6 43 23q20 20 30 47q12 31 13 80q0 6 8 6h22q8 0 9 -6v-428q0 -8 -2 -8h-7h-22q-8 0 -8 2v6q0 57 -13 90q-12 35 -30 53 q-20 20 -43 27q-25 6 -51 6h-345q-10 0 -10 -10v-488q0 -25 10 -45q8 -16 24.5 -26.5t35.5 -12.5q29 -4 43 -4h332q59 0 98 27q33 23 61 65q25 37 37 78q10 33 15 72q2 27 28 26q6 0 11 -4q2 -2 2 -8l-33 -336q-4 -8 -6 -10q-4 -4 -9 -4h-1114q-6 0 -6 4z" />
<glyph unicode="F" horiz-adv-x="1165" d="M86 8v25v4q0 4 8 4q4 0 29 4q4 0 27 8q39 16 69 51q29 33 29 76v1080q0 39 -23 61q-20 20 -47 33q-18 8 -49 12q-6 0 -13 1t-11.5 2t-6.5 1h-4q-6 0 -6 2l-1 2q-1 2 -1 4v25q0 2 1 2t1 2t6 2h944q2 0 9.5 -1t9.5 -3q6 -3 6 -19v-241q0 -10 -4 -14.5t-12 -4.5h-13 q-2 0 -6 19q-6 35 -8 39q-6 20 -16 45q-12 29 -19 35q-18 18 -27 24q-14 10 -28 17q-12 4 -37 8q-14 2 -51 2h-379q-20 0 -21 -21v-463q0 -23 25 -22h391q23 0 37 2q23 4 45.5 16.5t36.5 39t14 73.5q0 8 8 8h25q8 0 8 -8v-373q0 -6 -4 -6l-2 -1l-2 -1h-25q-6 0 -6 4 q0 2 -1 2t-1 2q0 55 -14 84q-12 27 -37 43q-18 12 -43 17q-29 4 -37 4h-393q-10 0 -18 -8q-6 -6 -7 -21v-514q0 -25 11 -45q8 -16 28 -31q29 -18 43 -24q25 -9 56 -19q20 -8 32.5 -10t26.5 -2q8 0 8 -4v-4v-25v-6q0 -2 -8 -2h-545q-6 0 -6 2q0 3 -2 6z" />
<glyph unicode="G" horiz-adv-x="1619" d="M115 717q0 106 26 194q29 94 76 174q41 70 119 148q63 63 149 115q82 49 177 73q100 27 192 27q84 0 156 -14q104 -20 137 -31q84 -25 98 -31q37 -14 45 -14h13q4 0 8 1l4 1q4 0 8 4q2 2 6 2l4 1q4 1 8 1h25q2 0 4 -1t4 -1q4 0 4 -8v-334q0 -12 -6 -14q-8 -4 -16 -4h-4 q-8 0 -15 10q-6 8 -8 18q-4 16 -4 23q0 4 -1 8t-1 6q-102 313 -422 313q-84 0 -168 -26q-82 -27 -139 -70q-63 -47 -111 -106q-41 -53 -80 -135q-31 -70 -51 -154q-16 -72 -16 -162q0 -78 16 -170q14 -80 49 -160q37 -84 82 -143t115 -113q63 -47 143 -75q78 -27 174 -27 q20 0 74 4q27 2 80 14q45 10 76 25q33 14 53 43v274q0 39 -10 76q-10 35 -39 58q-31 23 -76 34q-49 12 -123 13q-6 0 -8 4q-4 8 -4 14q0 4 4 12q4 6 8 7h611q8 0 8 -7q0 -2 1 -6t1 -6q0 -6 -2 -10q-2 -6 -8 -8q-18 -8 -55.5 -20.5t-53.5 -20.5q-23 -10 -39 -35 q-16 -23 -16 -62v-325q0 -6 -6.5 -12.5t-20.5 -12.5q-53 -27 -121 -49q-90 -31 -129 -39q-90 -20 -135 -26q-59 -8 -127 -9q-158 0 -291 51.5t-235 147.5q-100 94 -160 236q-57 135 -57 309z" />
<glyph unicode="H" horiz-adv-x="1710" d="M59 8v25l1 2l1 2q0 4 7 4q23 0 63 4q33 4 57 18q29 18 43 43q16 29 17 76v1067q0 37 -12 58q-14 25 -31 36q-25 18 -47 23q-18 4 -64 8q-8 0 -8 8v21q0 6 8 6h502q6 0 6 -2t1 -2t1 -2v-21q0 -6 -8 -6q-39 0 -57 -4q-31 -6 -50 -20q-23 -16 -35 -43t-12 -72v-463 q0 -10 2 -12q4 -4 15 -4h786q10 0 15 4q2 2 2 12v477q-2 6 -2 17q0 2 -1.5 7t-1.5 7q-6 25 -28.5 41t-54.5 29q-25 8 -70 16q-14 2 -37 4t-27 2q-8 0 -8 8v21q0 6 6 6h578q6 0 6 -2t1 -2t1 -2v-21q0 -6 -8 -6q-41 0 -60 -4q-31 -6 -49 -20q-27 -18 -37 -43q-14 -33 -14 -72 v-1057q0 -16 8 -45q4 -10 25 -41q16 -23 51 -37q31 -12 105 -16q8 0 8 -8v-25q0 -8 -8 -8h-637q-6 0 -7 2l-2 6v25l1 2l1 2q0 4 7 4q45 0 73 2q31 2 84 18q37 10 68 39q29 25 29 70v477q0 10 -2 12q-4 4 -15 5h-786q-10 0 -15 -5q-2 -2 -2 -12v-487q0 -37 15 -58 q16 -23 39 -36q20 -12 57 -21q20 -4 65 -4q8 0 9 -4v-4v-25v-6q0 -2 -6 -2h-553q-6 0 -6.5 2t-1.5 3z" />
<glyph unicode="I" horiz-adv-x="698" d="M90 8v25l1 2l1 2q0 4 6 4q27 0 64 4q28 3 49 18q16 12 31 43q10 23 10 76v1067q0 33 -10 58q-8 18 -31 36q-16 14 -47 21q-29 6 -64 6q-8 0 -8 8v25q0 6 8 6h500q8 0 8 -2v-4v-25v-6q0 -2 -8 -2q-27 0 -63 -4q-23 -2 -48 -20q-16 -12 -30 -43q-12 -29 -13 -76v-1067 q0 -33 11 -58q8 -18 30 -36q16 -14 48 -21q18 -4 63 -4q8 0 8 -8v-25v-6q0 -2 -8 -2h-500q-6 0 -6 2q0 3 -2 6z" />
<glyph unicode="J" horiz-adv-x="692" d="M-250 -535q0 16 10 37q8 18 23 29q20 16 33 20q18 6 37 7q23 0 51 -9q23 -6 39 -16q10 -6 28 -25q10 -10 26.5 -22t27.5 -16q20 -8 36 -9q41 0 76 21q33 20 53 51q16 27 31 76q8 33 17 90q8 66 8 100v101v1349q0 37 -13 62q-12 23 -38 37q-33 16 -62 18q-49 4 -82 4 q-8 0 -8 8v25q0 6 8 6h545q6 0 6 -2v-4v-25v-6q0 -2 -6 -2q-23 0 -59 -4q-25 -2 -50 -20q-23 -16 -34 -43q-12 -29 -13 -76v-1237q0 -70 -14 -140q-16 -82 -41 -143q-27 -70 -70 -133q-41 -61 -96 -111q-53 -47 -123 -75q-66 -27 -145 -27q-41 0 -64 6q-45 12 -65 23 q-31 16 -51 32q-21 18 -21 43z" />
<glyph unicode="K" horiz-adv-x="1523" d="M41 8v19q0 8 6 8q20 0 70 8q35 6 65 23q29 16 47.5 36.5t18.5 57.5v1089q0 37 -18.5 57.5t-47.5 36.5q-31 16 -65 23q-25 4 -70 8q-6 0 -6 8v21q0 6 6 6h588q6 0 6 -2t1 -2t1 -2v-21q0 -6 -8 -6q-39 0 -62 -4q-45 -8 -63 -18q-31 -16 -47 -39q-20 -27 -21 -68v-440 q0 -37 4 -66q4 -23 15 -22h10q2 0 10 4q53 23 107 65q45 37 88 86q45 53 78 99l67 102q6 8 39 55q18 23 37 58l27 53q12 25 12 49.5t-14 46.5q-12 18 -33 27q-8 4 -43 8q-14 2 -43 2h-10q-6 0 -7 4q0 2 -1 2t-1 2v21q0 2 1 2t1 2t7 2h577q8 0 8 -2v-4v-21q0 -4 -2 -6 q-6 -6 -10 -6q-76 -4 -111 -10q-49 -9 -92 -31q-39 -18 -78 -55q-31 -27 -65 -88l-98 -154q-51 -76 -78 -110q-37 -47 -62 -72l-45 -45q-18 -18 -28.5 -30.5t-12.5 -22.5q8 -14 25 -27l47 -43l70 -68q59 -59 94 -98l115 -137q41 -49 135 -184q27 -41 88 -89q47 -37 119 -53 q34 -9 55 -12q6 0 16 -3t14.5 -3t11.5 -1t9 -1h16q6 0 7 -2l2 -6v-17q0 -8 -9 -8h-655q-6 0 -6 8v19q0 8 6 8q4 2 17.5 3t19.5 1q33 4 47 8q20 6 39 19q16 10 16 38q-4 18 -22 50q-37 57 -49 73q-20 27 -66 80l-63 74l-74 86q-66 78 -80 90q-43 43 -84 70q-45 29 -86 28h-18 q-8 0 -9 -4l-1 -4q-1 -4 -1 -6v-469q0 -45 18.5 -71.5t47.5 -43.5q18 -10 63 -18q35 -6 64 -6q6 0 6 -2l2 -6v-17l-1 -2q-1 -2 -1 -4t-6 -2h-588q-6 0 -6 8z" />
<glyph unicode="L" horiz-adv-x="1236" d="M41 8v25v4q0 4 6 4h25h20q6 0 19.5 3t17.5 3q33 4 45 8q23 6 39 17q33 20 51.5 51t18.5 70v1058q0 39 -25 60q-29 25 -55 35q-47 16 -66 20q-23 4 -53 4h-23q-6 0 -6 4l-2 4v25q0 2 1 2t1 2t6 2h676q8 0 8 -2v-4v-25v-6q0 -2 -8 -2h-43q-59 0 -102 -8q-53 -10 -80 -21 q-23 -10 -29 -26q-6 -18 -6 -64v-1110q2 -14 18.5 -30.5t34.5 -16.5h396q35 0 67 17q31 16 58 39q37 33 51 51l41 53l19 26.5t16 20.5q16 23 24 29q8 4 10 6q4 4 11 4q10 0 10 -14q0 -4 -4 -13l-152 -295q-4 -10 -8 -14t-12 -4h-1010q-6 0 -6 2v6z" />
<glyph unicode="M" horiz-adv-x="1927" d="M27 8v25v4q0 4 8 4q66 0 102 18q35 16 53 50q20 33 23 71q2 14 3 43t1 43q4 86 16 254l17 246q6 78 14 240q4 78 4 233v37q0 25 -14 41t-35 29q-22 12 -43 18q-20 6 -33 6q-8 0 -8 8v25q0 2 1 2t1 2t6 2h289q16 -4 18.5 -6t5.5 -4t5 -5t4 -5l469 -1047q2 -2 6 -10 q2 -6 10 -6q10 0 16.5 6t8.5 12l463 1026q10 20 18 29q10 10 21 10h290q6 0 6.5 -2t1.5 -2t1 -2v-25l-2 -6q0 -2 -7 -2l-3 -1q-3 -1 -9 -2t-12 -1q-20 -2 -47 -16q-25 -12 -45 -33q-23 -23 -23 -55l62 -1106q0 -29 14 -49.5t37 -32.5q25 -14 43 -19q35 -8 45 -10 q29 -4 35 -4h14q8 0 8 -4v-4v-25v-6q0 -2 -8 -2h-567q-8 0 -8 8v25q0 8 8 8q35 0 55 2q39 4 57 10q31 10 47 27q20 20 21 47l-53 954q0 10 -6.5 10.5t-8.5 -8.5l-495 -1077q-2 -6 -25 -6h-12q-4 0 -8 8l-492 1077q-2 6 -4 11q0 4 -4 4q-8 0 -8 -13q0 -10 -4 -100 q-6 -115 -9 -158q-6 -88 -12 -188l-4 -96t-6 -96q-8 -129 -10 -170q-2 -51 -2 -119v-41q2 -16 18 -33q18 -18 41 -27q16 -6 53 -14q18 -4 62 -4q4 0 4 -4l1 -2l1 -2v-25q0 -8 -6 -8h-467q-8 0 -8 8z" />
<glyph unicode="N" horiz-adv-x="1746" d="M59 8v25q0 8 9 8h24h29q4 0 12 1t12 1q8 0 17 4q27 14 41 33q16 23 24 45q8 25 13 57q2 20 2 66v1038q0 31 -20.5 45.5t-51.5 24.5q-18 6 -57 10q-41 4 -45 4q-6 0 -7 2l-1 2q-1 2 -1 4v25q0 2 1 2t1 2t7 2h366l948 -1049q2 -2 6 -4l3 -2l4 -4q6 0 6 4v6v689q0 98 -6 161 q-6 59 -27 99q-20 37 -51 49t-82 12h-51q-6 0 -6 2l-1 2q-1 2 -1 4v25q0 2 1 2t1 2t6 2h520q6 0 6 -2t1 -2t1 -2v-25q0 -2 -1 -3l-1 -3q0 -2 -6 -2q-25 0 -51 -8q-41 -12 -62 -23q-29 -14 -51 -36.5t-22 -51.5v-1222q0 -22 -7 -31q-6 -10 -30 -10q-16 0 -31 10 q-16 12 -27 25l-1030 1142q-8 8 -10 9l-3 1q-3 1 -5 1q-4 0 -4 -11v-997q0 -28 12 -49q10 -16 35 -35q14 -10 47 -23q16 -6 49 -14q25 -6 45 -6h29q4 0 8 -4v-4v-25l-1 -2q-1 -2 -1 -4t-6 -2h-520q-2 0 -5 2q-4 4 -4 6z" />
<glyph unicode="O" horiz-adv-x="1769" d="M111 715q0 106 26 198q28 95 80 179q49 78 125 147q78 72 162 115q98 51 196 73q104 25 222 25q98 0 192 -25q88 -23 176 -71q76 -41 150 -113q66 -63 116 -145q47 -76 76 -172.5t29 -192.5q0 -86 -27 -186q-23 -86 -75 -178q-49 -86 -119 -156q-80 -80 -158 -127 q-90 -53 -190 -84q-98 -29 -218 -29q-57 0 -118 11q-74 12 -160 43q-82 29 -172 84q-84 51 -156 135q-74 88 -114 196q-43 117 -43 273zM319 752q0 -82 19 -168q18 -84 53 -164q33 -74 88 -146q57 -74 119 -118q78 -57 147 -80q86 -29 177 -29q133 0 233 53.5t166 143.5 q66 92 96 205q33 125 33 237q0 131 -41 260q-39 121 -119 223q-74 96 -188 156q-109 57 -252 57q-84 0 -158 -24q-76 -25 -133 -68q-53 -39 -102 -104q-45 -59 -76 -131q-29 -66 -45.5 -147.5t-16.5 -155.5z" />
<glyph unicode="P" horiz-adv-x="1210" d="M41 1393q0 6 2 10t10 6h6q2 0 8.5 1t12.5 1h37q6 0 26.5 1t34.5 1q25 0 70 1t82 2t69 3q111 6 222 6h102q88 -6 162 -39q80 -35 133 -88t88 -129q33 -72 33 -161q0 -51 -16.5 -106.5t-43.5 -100.5q-33 -55 -63 -88q-45 -49 -78 -70q-43 -28 -86 -43q-41 -15 -75 -15 l-11 1l-285 12h-8q-8 0 -10 -2l-4 -4v-8v-412q0 -25 6 -45q4 -14 24 -35q15 -15 43 -24q23 -8 64 -15q10 0 18 -2q12 -2 29 -4q4 -2 14.5 -2t16.5 -2q10 -2 24 -2q6 0 7 -4l1 -2l1 -2v-25l-1 -2q-1 -2 -1 -4t-7 -2h-598q-6 0 -6 4l-1 6q-1 6 -1 10v13v4q0 4 8 4q18 0 31 4 q6 2 17.5 5t13.5 3q55 12 78 43q23 33 22 74v1057q0 53 -8 77.5t-31 43.5q-18 15 -49 18q-20 2 -68 2h-45q-8 0 -16 8q-4 5 -4 17zM459 711l2 -29q0 -8 4 -16q2 -6 14 -7l5 -1q5 -1 10 -1q2 0 10 -1t14 -1t16.5 -1t14.5 -1h33q84 0 147 29q68 31 113 82q49 55 71 119 q25 68 25 149.5t-25 145.5q-27 68 -69 108q-51 47 -111 68q-68 23 -143 22h-27q-6 0 -12 -1t-12 -1h-25q-4 0 -14.5 -1t-16.5 -1q-10 0 -16 -2q-8 -2 -8 -14v-645z" />
<glyph unicode="Q" horiz-adv-x="1765" d="M111 707q0 170 59 301q63 139 166 235q104 98 248 154q139 53 311 53q106 0 204.5 -24.5t182.5 -69.5q78 -43 154 -111q68 -61 118 -145q45 -74 76 -178q27 -92 27 -205q0 -98 -29 -195q-28 -92 -80 -172t-123 -147q-63 -61 -157 -125q-16 -8 -31 -17l-47 -24 q-6 -2 -22.5 -10.5l-24.5 -12.5q-20 -12 -21 -14q0 -3 6 -6l109 -80l96 -72l72 -57l41 -33l82 -61q41 -31 90 -49q6 -4 20 -7l31 -6q10 -2 27 -10q10 -4 10 -10q0 -14 -10 -21q-20 -10 -31 -12q-25 -4 -39 -4h-39q-76 0 -135 20q-70 25 -125 54l-67 45l-64 45l-63 47 q-12 10 -31 22.5t-39 28.5q-37 29 -53 43q-6 4 -21.5 20.5t-25.5 22.5q-27 20 -47.5 32.5t-57.5 20.5q-6 2 -21.5 3t-21.5 1l-43 7q-143 23 -260 82q-121 61 -209 155t-141 219q-51 122 -51 267zM317 748q4 -98 23 -175q23 -92 57 -163q35 -70 90 -144q51 -66 121 -116 q66 -47 150 -76q80 -27 176 -27q113 0 205 45q94 45 163.5 127t110.5 201q39 115 39 260q0 137 -35 254q-37 119 -110 219q-74 98 -185 160q-109 59 -264 69q-125 0 -225 -51q-98 -51 -170 -137q-70 -86 -107 -201q-39 -122 -39 -245z" />
<glyph unicode="R" horiz-adv-x="1417" d="M41 1378v25v4q0 2 6 2h6l5 1q5 1 10 1h30q6 0 25.5 1t34.5 1q25 0 69.5 1t81.5 2t70 3q111 6 221 6h102q88 -6 162 -39q80 -35 133.5 -88t87.5 -129q33 -72 33 -161q0 -61 -18.5 -110.5t-48.5 -86.5q-35 -41 -76 -68q-53 -35 -94 -51l303 -495q37 -65 92 -111 q57 -47 121 -72q8 -2 8 -6l1 -3q1 -3 1 -5q0 -14 -8 -20q-6 -4 -25 -5q-80 0 -157 23q-72 20 -140 82q-33 31 -61 67q-35 47 -58 84l-256 402q-4 4 -6 4l-235 10h-8q-8 0 -11 -2l-4 -4v-6v-463q0 -25 6 -45q4 -14 25 -35q15 -15 43 -24q23 -8 63 -15q6 0 19 -2q4 0 10 -1 t14 -3q4 -2 13.5 -2t13.5 -2q8 -2 23 -2q6 0 6 -4l1 -2l1 -2v-25l-1 -2q-1 -2 -1 -4t-6 -2h-617q-6 0 -6 4l-1 6q-1 6 -1 10v13q2 2 2 4q0 4 6 4q12 0 21 2q6 2 12 2h14q10 2 27 6q12 2 16 2q58 12 80 43q23 33 23 74v1057q0 49 -22.5 77.5t-47.5 43.5q-27 14 -53 18 q-33 4 -35 4h-39q-6 0 -6 2v6zM438 748l2 -29q0 -6 4.5 -14.5t14.5 -8.5l5 -1q5 -1 9 -1q2 0 10.5 -1t14.5 -1t16 -1t14 -1h33q100 0 168 24.5t111 67.5t61 107q18 66 19 143q0 84 -27 146q-27 63 -76 108q-47 45 -110 66q-68 23 -138 22h-26q-6 0 -12.5 -1t-12.5 -1h-24 q-4 0 -14.5 -1t-16.5 -1q-8 0 -14 -2q-10 -4 -11 -14v-606z" />
<glyph unicode="S" horiz-adv-x="1024" d="M90 315q0 12 2 17q2 6 17 6q8 0 14 -10q12 -18 14 -22.5l6 -13.5t6.5 -13.5t5.5 -11.5t3 -9q51 -111 137 -168q84 -57 211 -57q59 0 102 16q53 20 88 49q37 31 60 78q20 43 20 103q0 66 -28 127q-27 55 -74 106q-39 43 -105 90l-120 84l-121 86q-61 45 -106.5 96.5 t-74 115t-28.5 141t33 137.5q31 57 86 102t118 66q72 23 138 22q37 0 73 -6q25 -4 74 -16l74 -19q12 -2 36.5 -10t36.5 -10l56 8q4 0 8 -8q2 -4 2 -15l27 -213l2 -10q2 -6 2 -12q0 -8 -17 -8h-12q-4 0 -8 4q-3 3 -6 12q-4 10 -11 22q-4 6 -6 11.5l-4 11.5q-4 8 -12 20 q-23 39 -55 72q-27 27 -74 55q-39 25 -84 37q-51 14 -90 15q-43 0 -80 -15q-43 -16 -74 -39q-33 -25 -55.5 -59.5t-22.5 -77.5q0 -61 29 -118.5t72 -100.5q47 -47 102 -88q16 -12 119 -84q82 -57 121 -88q61 -49 106 -102q49 -57 78 -123q29 -63 35 -152q0 -88 -37 -158 q-39 -74 -98 -118q-63 -47 -139 -72t-160 -25q-63 0 -119 11q-43 8 -86 22q-12 4 -61 23q-27 10 -43 10q-2 0 -6 -1l-3 -1l-49 -10q-14 0 -16 20q-12 117 -17 148l-5 44.5t-3 33t-1 14.5t-2 12t-1 6v10z" />
<glyph unicode="T" horiz-adv-x="1501" d="M63 1073v33l37 311q4 16 6 23q4 10 19 10q4 0 12 -4q6 -4 10.5 -10l8.5 -11q2 -4 10 -8q12 -6 22 -6q2 0 11.5 -1t13.5 -1h1077q4 0 12.5 1t10.5 1q10 0 22 6q8 4 11 8l4 3q4 3 6 8q4 6 10 10q8 4 10 4q14 0 19 -10q2 -6 6 -23l37 -311v-33q0 -4 -6 -4h-19q-4 0 -6 2 l-4 16q0 4 -1 10.5t-3 10.5q-8 41 -15 66q-10 41 -22 61q-18 33 -38.5 51.5t-61.5 28.5h-385q-4 0 -10.5 -1t-10.5 -3q-8 -2 -8 -25v-1106q0 -31 14 -53q12 -18 41 -41q25 -18 60 -31q31 -10 73 -14h29h29q6 0 6 -4l1 -2l1 -2v-25l-1 -2q-1 -2 -1 -4t-6 -2h-686q-6 0 -6.5 2 t-1.5 3l-1 3v25l1 2l1 2q0 4 7 4h28h29q41 4 72 14q39 14 61 31q29 23 41 41q14 23 14 53v1106q0 23 -8 25q-4 2 -10 3t-10 1h-385q-37 -10 -60 -29q-20 -18 -39 -51q-12 -20 -22 -61l-17 -66q-2 -4 -3 -10t-1 -11l-4 -16q-2 -2 -6 -2h-18q-7 0 -7 4z" />
<glyph unicode="U" horiz-adv-x="1671" d="M37 1378v25q0 6 6 6h543q6 0 6 -2t1 -2t1 -2v-25q0 -2 -1 -3l-1 -3q0 -2 -6 -2q-20 0 -62 -4q-33 -4 -59 -18q-29 -16 -43 -41q-16 -29 -16 -70v-717q0 -84 20 -147.5t63 -122.5q41 -57 99 -96q61 -43 137 -64h2q2 0 2 -1t2 -1h6q2 0 5 -1t6.5 -1t8.5 -1t9 -1l14 -2 q14 -2 23 -4q6 0 20.5 -1t20.5 -3q12 -2 28 -2q106 0 193 26q88 27 153.5 84.5t102.5 134.5q39 84 39 187v635q0 20 -4 69q-4 45 -17 70q-16 35 -43 55q-29 23 -86 33q-33 4 -41 4h-20q-8 0 -8 8v25q0 6 8 6h491q6 0 6.5 -2t1.5 -2t1 -2v-25q0 -4 -2 -6t-7 -2q-35 0 -63 -6 q-35 -8 -41 -10q-16 -6 -33 -23q-10 -10 -22 -35q-8 -16 -14.5 -34.5t-6.5 -24.5v-655q0 -139 -37 -254q-35 -109 -110 -191q-70 -76 -189 -121q-114 -43 -264 -43q-71 0 -147 13q-86 14 -150 34q-76 25 -137 64q-57 35 -111 92q-47 49 -75 121q-29 70 -29 154v798 q0 27 -14.5 51.5t-34.5 38.5q-16 12 -53 23q-27 8 -66 8q-6 0 -6 8z" />
<glyph unicode="V" horiz-adv-x="1503" d="M4 1378v25q0 6 8 6h590q8 0 8 -2v-4v-25v-6q0 -2 -8 -2h-14q-4 0 -24.5 -3l-33.5 -5q-25 -2 -61 -14q-29 -10 -47 -31q-20 -25 -21 -57q0 -4 5 -29q2 -12 10 -29l379 -921l2 -5l4 -4q2 -2 4 -2q6 0 10 11l348 942q8 29 8 41q0 33 -22.5 59.5t-65.5 32.5q-2 0 -18 4 q-4 2 -14.5 3t-14.5 1t-14 2t-14 2q-10 2 -21 2q-8 0 -8 8v25q0 2 1 2t1 2t6 2h506q6 0 6 -2v-4v-25v-6q0 -2 -6 -2h-39q-53 -12 -88 -43q-41 -37 -59 -74q-29 -57 -39 -90q-18 -55 -33 -94l-393 -1061q-8 -25 -23 -31q-8 -4 -35 -4h-47q-25 0 -30 23l-529 1276 q-10 25 -22 37q-20 20 -31 26q-20 12 -31 17l-24 8q-2 2 -8.5 3t-8.5 1q-6 2 -16 2q-4 0 -9 1t-8 1l-8 2q-8 0 -8 8z" />
<glyph unicode="W" horiz-adv-x="2260" d="M-8 1378v25q0 6 8 6h569q8 0 9 -2v-4v-25q0 -2 -1 -3l-2 -3q0 -2 -6 -2h-16q-41 0 -63.5 -8t-36.5 -23q-14 -12 -17 -28q-4 -20 -4 -29q0 -23 6 -41q8 -25 13 -39l383 -921q6 -10 18 -11q6 0 8 2q4 4 6 9l221 520l-194 471q-4 12 -25 28q-16 12 -43 27q-10 4 -26.5 10 t-20.5 9q-20 8 -35 12q-12 6 -30 8q-4 0 -10.5 1t-9.5 2t-5 1q-6 0 -6 8v25q0 6 6 6h918q6 0 6 -2t1 -2t1 -2v-25q0 -2 -1 -3l-1 -3q0 -2 -6 -2h-37q-37 0 -64 -10q-23 -8 -45 -31q-18 -18 -39 -53q-8 -14 -35 -76l-129 -303l256 -616q6 -10 19 -11q6 0 8 2q4 4 6 9l424 995 q12 27 12 47q0 29 -26 37q-31 10 -88 10h-64q-8 0 -8 8v25q0 2 1 2t1 2t6 2h447q6 0 6 -2t1 -2t1 -2v-25l-2 -6q0 -2 -6 -2h-47q-20 0 -41 -10q-12 -6 -30.5 -28.5t-29.5 -47.5l-30 -70l-514 -1206q-12 -23 -23 -28q-12 -6 -35 -7h-47q-23 0 -33 23l-270 653l-272 -641 q-12 -23 -23 -28q-12 -6 -35 -7h-47q-25 0 -31 23l-530 1276q-4 12 -25 28q-16 12 -43 27q-10 4 -26.5 10t-20.5 9q-20 8 -35 12q-2 2 -8 3t-8 1q-2 2 -10 2t-10 2q-6 2 -17 2q-4 0 -7 1l-3 1q-8 0 -8 8zM1112 1282q0 -23 6 -41q8 -25 12 -39l64 -153l96 227q12 27 13 47 q0 25 -21 33q-23 10 -65 12q-39 -4 -56 -10q-14 -6 -31 -23q-12 -12 -14 -26q-4 -21 -4 -27z" />
<glyph unicode="X" horiz-adv-x="1609" d="M4 8v25q0 8 8 8h39q55 6 105 35q37 23 84 65q41 39 75 82q45 57 68 82l315 416l-305 391l-55 76q-27 37 -59 72q-25 29 -70 57q-35 25 -88 37l-25 8q-6 2 -16 2t-14 2q-10 2 -29 2q-6 0 -14.5 1t-10.5 1q-6 0 -6 2l-1 2q-1 2 -1 4v25q0 2 1 2t1 2t6 2h660q8 0 8 -2v-4 v-25v-6q0 -2 -8 -2q-12 0 -35 -1t-33 -1q-31 0 -53 -6q-27 -8 -37 -19q-12 -12 -12 -34q0 -6 6 -23l10 -20l279 -369l8 -8q0 -2 6 -2q8 0 16 8q2 2 5.5 4t5.5 5t4 5l270 346q18 23 18 52q0 25 -16 36q-14 12 -39 19q-23 6 -49 6q-8 0 -23.5 1t-21.5 1q-8 0 -8 8v25q0 2 1 2 t1 2t6 2h537q8 0 8 -2v-4v-25v-6q0 -2 -8 -2q-49 0 -94.5 -16.5t-82.5 -40.5q-43 -29 -71 -58q-45 -45 -66 -69q-6 -6 -14 -17l-12.5 -16l-12.5 -16l-24 -33q-12 -15 -13 -19l-96 -122l-67 -84q-16 -18 -27.5 -34t-13.5 -20q-14 -18 -21 -28l-10 -11q-2 -2 -2 -6q2 -2 4 -6 q6 -12 16 -24l43 -60l80 -106l131 -174l197 -256q10 -16 31 -33l14 -12q14 -12 23 -19q14 -10 43 -22q31 -12 40 -15q16 -8 29 -8q8 0 15.5 -1t13.5 -1q12 0 24 -4q10 -4 11 -16q0 -15 -13 -19q-16 -4 -26 -4h-551q-6 0 -6 2l-2 6v25l1 2l1 2q0 4 6 4h31q16 0 45 4 q18 2 38 16q16 10 17 39q0 2 -4 19l-8 16l-353 465q-2 4 -6 8q-2 2 -10 2t-10 -2q-4 -4 -6 -8l-347 -455q-6 -8 -10 -20t-4 -21q0 -31 23 -43q18 -10 49 -14q18 -2 57 -2q29 0 37 -4q8 -2 8 -8v-25v-6q0 -2 -8 -2h-543q-6 0 -6 2q0 3 -2 6z" />
<glyph unicode="Y" horiz-adv-x="1525" d="M4 1393q0 6 2 10q2 6 12 6h574q10 0 12 -4q4 -8 4 -12q0 -23 -16 -23q-20 -2 -45 -4q-16 -2 -45 -10q-16 -4 -35 -23q-14 -14 -14 -41q0 -25 12 -43l338 -540q6 -6 10 -16l2 -5q4 -4 10 -4q8 0 15 8l14 21l268 458l8.5 16.5l10.5 19t10 16.5q14 27 14 57.5t-12 44.5 q-14 16 -29 25q-25 12 -41 14l-43 6q-12 0 -14 6q-2 4 -2 17q0 8 2 12t14 4h467q9 0 13 -6q2 -4 2 -10q0 -8 -4 -17l-13 -6q-8 -4 -16 -4q-6 0 -19 -4q-49 -12 -86 -37q-35 -23 -71 -63q-8 -8 -15 -17q-4 -4 -7 -8l-3 -4l-395 -680v-373q0 -55 31 -86q33 -33 106 -41 q2 0 8 -1t11 -1q6 0 22 -4q8 -2 21 -6q8 -2 8 -10v-11q0 -14 -10 -18q-6 -2 -25 -2h-539q-18 0 -24 2q-10 4 -10 18v11q0 6 8 10q4 2 16 6t23 4q4 0 11 1t9 1q80 10 109 39q31 31 30 88v332v6l-4 8l-407 652l-37 55q-16 25 -43 51.5t-51.5 42.5t-59.5 27l-16 4q-4 2 -11.5 2 t-11.5 2q-12 2 -22 4q-8 2 -16.5 2t-12.5 8q-2 5 -2 17z" />
<glyph unicode="Z" horiz-adv-x="1458" d="M78 43q0 6 4 23q4 14 10 20l936 1208q4 8 4 11q0 10 -8 10h-12h-606q-25 0 -50 -6q-27 -6 -47 -19q-14 -8 -39 -33q-16 -16 -26 -43l-11 -40q-2 -8 -9 -39t-11 -54q0 -2 -2 -7q0 -5 -2 -7q-4 -4 -23 -4q-14 0 -16 6l16 307v10q0 4 4 13q2 8 11 10h8h1085q4 0 6 -4 q2 -2 2.5 -6t2.5 -6q4 -8 4 -13q0 -2 1 -7t1 -7q0 -20 -13 -39l-899 -1163l-12 -17q-8 -10 -8 -20q0 -14 16 -21q15 -6 31 -6h704q33 0 52 11q29 16 41 26q31 25 49 58q18 35 31 69q8 23 16 76q4 25 8 74q2 10 8 12q4 2 15 2q2 0 10 -4q4 -2 4 -8v-47l-21 -310q0 -4 -1 -12 t-1 -10q0 -12 -2 -18.5t-8 -12.5t-16 -6h-1221q-6 0 -10 4t-4 12q0 2 -1 7.5t-1 7.5v12z" />
<glyph unicode="[" horiz-adv-x="739" d="M205 -342v2073h497v-86h-272q-72 0 -72 -72v-1755q0 -74 72 -74h295v-86h-520z" />
<glyph unicode="\" horiz-adv-x="663" d="M662 -27l-523.968 1479h-130.992l525.968 -1479h128.992z" />
<glyph unicode="]" horiz-adv-x="739" d="M14 -256h297q37 0 56 18q16 16 16 56v1755q0 39 -16.5 55.5t-55.5 16.5h-274v86h498v-2073h-521v86z" />
<glyph unicode="^" d="M76 680l422 698h61l414 -698h-150l-295 506l-305 -506h-147z" />
<glyph unicode="_" horiz-adv-x="1013" d="M-16 -205h1046v-114h-1046v114z" />
<glyph unicode="`" horiz-adv-x="698" d="M139 1378q0 31 21 52q23 23 53 22q18 0 36.5 -12.5t37.5 -36.5l213 -295q4 -4 4 -6t-4 -6l-23 -29q-4 -4 -8 -4l-4 4l-270 217q-12 12 -37 39q-19 20 -19 55z" />
<glyph unicode="a" horiz-adv-x="884" d="M70 178q0 41 12 72q10 29 47 57q31 25 92 51q43 18 152 48q45 12 80 28q31 14 57 29q16 8 20 16q2 4 2 13v192q0 29 -10 64q-8 27 -30 57q-16 23 -48 39q-27 14 -67 14q-16 0 -39 -6q-20 -6 -41 -22.5t-33 -38.5t-12 -56v-10q0 -2 1 -6t1 -6t1 -5t1 -6v-6q-8 -8 -20 -14 l-46 -23l-26 -11t-23 -9q-6 -2 -11 -4t-9 -3t-7 -3t-5 -2q-12 0 -15 10q-2 8 -2 22q0 43 25 86q23 41 61 76q43 39 78 60q39 23 78 32q57 14 102 15q84 0 150 -54q41 -33 73 -77q29 -41 29 -105v-526q0 -27 25 -43q23 -14 55 -14q23 0 31 4q16 8 22 12q2 2 8.5 5t8.5 5 q6 6 12 6q8 0 8 -6q0 -2 1 -6t1 -6q0 -16 -4 -25q-2 -4 -16 -14l-107 -80q-23 -14 -45 -22q-25 -8 -51 -9q-25 0 -37 11l-25 26q-8 10 -20 35q-2 4 -14 35q-2 6 -5 16l-4 10q-2 8 -4 9l-116 -90q-8 -4 -15.5 -10.5t-15.5 -10.5q-25 -14 -29 -16q-12 -4 -33 -8q-25 -4 -38 -5 q-41 0 -76 15q-41 16 -68 41q-31 29 -49 63q-18 37 -18 84zM227 199q0 -25 11 -49q12 -29 26 -41q20 -16 39 -24.5t45 -8.5q16 0 51 10t62 27q27 14 51 41q20 20 20 45v202q0 12 -8 13l-2 -1l-2 -1l-231 -109l-27 -18q-10 -8 -18 -19q-8 -12 -13 -28q-4 -21 -4 -39z" />
<glyph unicode="b" horiz-adv-x="1097" d="M12 1499q0 6 2 10q2 2 13 11l256 118l4 2l4 2q2 2 6 3q16 0 16 -23v-784q0 -8 4 -21q4 -10 13 -10q4 0 22 8l43 23l62 32l69 29q14 6 52 16q4 2 38 9q20 4 31 4q76 0 141.5 -41t108.5 -104.5t68 -145.5q25 -80 24 -162q0 -100 -32.5 -190t-96.5 -160q-66 -72 -151 -111 q-92 -41 -201 -41q-45 0 -107 4q-14 0 -82 13q-31 4 -71 16q-72 18 -76 21q-10 4 -12 8t-2 16v1348q0 25 -13 37q-16 16 -32 20l-43 12q-18 2 -45 11q-4 2 -8.5 6t-4.5 14zM313 244q6 -47 27 -82q22 -37 55 -62q35 -27 74 -37q43 -12 86 -12q70 0 127 35q51 31 90 86 q37 51 55 119q18 66 18.5 131t-18.5 133q-18 66 -57 125q-37 55 -96.5 90t-141.5 35q-53 0 -106 -19q-61 -23 -100 -45q-8 -4 -11 -10q-2 -4 -2 -14v-473z" />
<glyph unicode="c" horiz-adv-x="933" d="M90 395q0 147 39 254q37 100 107 164q68 61 157 88q88 27 201 27q10 0 32.5 -1t35.5 -1q25 0 69 -8q37 -6 64 -25q29 -20 47 -49q4 -6 8 -18.5t4 -18.5q0 -39 -23 -53q-27 -16 -57 -17q-25 0 -45 11q-25 12 -37 22l-30 31q-20 20 -33 30q-16 14 -37 23q-25 10 -45.5 10 t-54.5 -10q-29 -8 -52 -25q-51 -29 -82 -65q-37 -43 -55 -84q-22 -46 -31 -98q-10 -57 -10 -103q0 -86 17 -149q18 -74 57 -127q37 -51 100 -86q59 -33 152 -33q49 0 86 14q41 16 76 41q20 16 30 27q4 4 10.5 9t10.5 10l8 10q6 6 11 12t9 10q10 10 13 10q8 0 14 -6 q8 -8 8 -14v-10q0 -4 -6 -11q-70 -100 -168 -157q-96 -55 -217 -56q-84 0 -158 35q-70 33 -120 94q-53 61 -78 134q-27 73 -27 159z" />
<glyph unicode="d" horiz-adv-x="1089" d="M86 418q0 104 35 186q39 90 102.5 153.5t151.5 104.5q84 39 186 39q20 0 62 -4q31 -3 61 -12q25 -6 31 -8q18 -6 33 -7h6q0 2 2 2l4 11v516q0 25 -12 37q-16 16 -33 20l-43 12q-18 2 -45 11q-4 2 -8.5 6t-4.5 14q0 6 2 10q2 2 13 11l256 118l4 2l4 2q2 2 6 3q16 0 16 -23 v-1425q6 -49 25 -64q23 -18 66 -18l59 4q4 0 4 -6v-11q0 -4 -2 -6l-12 -8l-267 -108q-2 0 -3 -2q-3 -3 -7 -3l-8 -2q-8 0 -8 9q0 2 -1 8t-1 8v90q0 10 -6 10t-11 -2l-71 -43q-33 -18 -76 -38.5t-78 -30.5q-33 -10 -84 -11q-92 0 -155 39q-66 41 -109 105q-41 63 -64 143 q-20 76 -20 158zM236 463q0 -63 20 -141q16 -63 59 -123q39 -53 99 -88q57 -33 141 -33l25 4q29 4 41 8q37 10 47 14l21.5 7.5t23.5 9.5q18 8 35 20q12 9 12 19v516q0 6 -2 10q0 2 -1 5t-3 5l-9 13l-12 12q-35 47 -88 80q-52 31 -117 30q-76 0 -129 -32q-55 -34 -92 -86 q-33 -45 -53 -119q-18 -65 -18 -131z" />
<glyph unicode="e" horiz-adv-x="929" d="M70 406q0 94 28 192q27 92 82 166q57 78 135 119q84 45 189 45q49 0 88 -8q47 -10 84 -33q10 -6 33 -29q10 -10 34 -43q20 -27 35 -53q20 -37 29 -55q18 -39 20 -52q8 -33 9 -41q0 -14 -7 -26q-6 -10 -18 -10h-580q-10 0 -14 -19q-4 -25 -4 -45q0 -33 2 -51q0 -6 2 -17.5 t3 -20.5t1 -17q3 -25 6 -43q1 -6 3 -16q1 -6 1 -7q12 -58 43 -104.5t74 -79.5q45 -35 96 -54q52 -18 111 -18q39 0 68 10q35 12 61 29q41 25 59 39q16 10 28.5 22.5t25.5 20.5q2 2 6 2h4q6 0 12 -10q8 -10 10 -13q-20 -27 -75 -77q-29 -27 -95 -68q-45 -29 -104 -49 q-52 -18 -104 -19q-83 0 -154 37q-72 37 -121 99q-51 63 -78 139q-28 80 -28 158zM242 643q0 -8 6 -14q4 -4 12 -4h367q27 0 26 22q0 39 -16 78q-16 37 -41 66q-29 31 -64 49q-37 18 -75 18q-37 0 -76 -16q-31 -12 -64 -45q-29 -29 -47 -66q-20 -41 -28 -76v-12z" />
<glyph unicode="f" horiz-adv-x="622" d="M41 16q0 10 8 13q14 8 37 10q16 2 49 14q18 6 41 33q18 20 19 66v606q0 10 -13 10h-108q-6 0 -23 8q-10 6 -10 23q0 12 10 16l29 14q6 2 19.5 5.5t17.5 5.5q25 6 39 14q12 6 28 18q10 8 11 27v33q0 82 14 201q12 98 47 190q33 86 94 164q57 72 152 119q66 33 115 49 t118 16q14 0 45 -6t62 -18q37 -14 53 -29q23 -18 23 -39q0 -10 -2.5 -14t-6.5 -17l-8 -16q-6 -12 -12 -26.5t-12 -26.5l-5.5 -10.5t-3.5 -8.5l-2 -4q-2 -4 -4 -6q-4 -4 -12 -4h-4q-2 0 -12 10l-48 37l-51 33q-31 18 -53 26q-25 8 -57 9q-68 0 -115 -19q-45 -18 -76 -49 q-35 -35 -47 -68q-15 -40 -25 -79q-10 -45 -10 -80q0 -14 -1 -37t-1 -31v-291q0 -6 4 -6l2 -1q2 -1 4 -1h195q31 0 37 -4q10 -6 12 -21q8 -27 10 -43q2 -12 2 -40q0 -16 -4 -19q-8 -4 -20 -4h-227h-9q-6 0 -6 -8v-588q0 -43 22.5 -71.5t57.5 -43.5q41 -16 80 -22 q43 -6 88 -6q18 -4 18 -13q0 -6 -2 -10q-4 -6 -16 -6h-549q-8 2 -8 16z" />
<glyph unicode="g" horiz-adv-x="1146" d="M70 -406q0 53 24 89q27 39 64 65q14 12 86 64q43 33 88 86q-55 4 -94 20q-45 18 -72 41q-29 23 -49 53q-18 29 -19 60q0 41 27 65q31 27 65 43q33 16 82 33q49 18 76 39q-113 43 -174 121q-59 74 -59 182q0 82 32 147q37 74 91 119q61 51 137 78q88 31 170 31 q78 0 153 -27q72 -25 121 -72q65 0 129 7q63 6 139 6q23 0 29 -6q10 -10 12 -18.5t9 -43.5q4 -25 4 -41q0 -14 -6 -16q-8 -4 -21 -4h-221l12 -25l15 -28q8 -18 10 -37q6 -43 6 -52q0 -63 -29 -131q-27 -61 -84 -112q-55 -49 -135 -80t-180 -31q-6 0 -16.5 1t-14.5 1 q-18 0 -26 2q-4 2 -13.5 4t-13.5 2q-6 2 -13.5 5.5t-15.5 5.5q-20 -20 -41 -31q-12 -8 -24.5 -14.5l-24.5 -12.5q-16 -10 -41 -30q-18 -15 -18 -37q0 -47 82 -68q80 -20 268 -20q80 0 174 -4q74 -4 125 -12.5t84 -26.5q37 -20 61 -45q43 -43 60 -89q12 -35 12 -83 q0 -43 -16 -84q-16 -43 -56 -91q-35 -43 -92 -88q-55 -43 -129 -73q-84 -35 -166 -52q-92 -18 -207 -18q-98 0 -165 21q-84 25 -119 51q-49 37 -70 75q-22 45 -22 86zM221 -324q0 -41 29 -86q27 -41 78 -79q45 -35 114 -58q61 -20 142 -20q82 0 149 22q72 25 129.5 66 t89.5 92q35 53 35 111q0 31 -14 59q-14 27 -35 45q-18 16 -53 27q-41 12 -64 14q-4 0 -20.5 1t-28.5 1q-10 0 -36.5 2t-41 2t-44 1t-46 1t-47.5 1t-45 1q-35 0 -80 4q-8 0 -26.5 1t-24.5 3q-23 -27 -55 -53q-10 -8 -26.5 -24.5t-23.5 -22.5q-20 -18 -38 -47q-17 -27 -17 -64 zM279 602q0 -57 14 -113q16 -63 45 -108q29 -47 80 -82q47 -33 119 -33q55 0 96 20.5t73.5 59.5t47.5 90q16 55 16 117q0 78 -18 139q-18 59 -54 105q-33 41 -80 63q-49 23 -104 23q-43 0 -76 -11q-39 -12 -75.5 -42.5t-61.5 -86.5q-22 -51 -22 -141z" />
<glyph unicode="h" horiz-adv-x="1122" d="M31 16q0 8 10 13q14 8 37 10q12 2 47 14q23 8 43 33q16 18 16 66v1247q0 25 -12 37q-16 16 -33 20l-43 12q-18 2 -45 11q-4 2 -8 6t-4 14q0 2 4 10q2 6 10 11l256 118q2 0 4 2t4 2q2 2 7 3q18 0 18 -23v-848v-14q0 -10 6 -10t10 4l3 4q3 4 6 6l59 61q27 27 61 52 q37 27 70 36q37 12 82 13q66 0 117 -15q59 -16 96 -53q39 -39 63 -110q23 -66 23 -179v-417q0 -45 18 -66q20 -25 43 -33q33 -12 48 -14q23 -2 36 -10q10 -4 11 -13q0 -12 -11 -16h-444q-10 4 -10 16q0 8 10 13q14 8 37 10q12 2 47 14q23 8 43 33q16 18 16 66v407 q0 74 -2 109q-4 55 -20 90q-20 41 -55 59q-39 20 -109 21q-43 0 -82 -17q-47 -20 -82 -47q-43 -33 -65 -69q-25 -41 -25 -80v-473q0 -47 16 -66q20 -25 43 -33q33 -12 48 -14q23 -2 36 -10q10 -4 11 -13q0 -12 -11 -16h-444q-10 4 -10 16z" />
<glyph unicode="i" horiz-adv-x="575" d="M59 16q0 8 11 13q14 8 36 10q16 2 50 14q18 6 41 33q18 20 18 66v530q0 25 -12 37q-16 16 -33 20q-29 8 -43 11q-4 0 -45 12q-2 0 -5 1t-5 3t-2 14q0 6 2 10.5t12 10.5l256 121l4 2l4 2q2 2 6 2q16 0 17 -25v-751q0 -45 18 -66q23 -27 41 -33q33 -12 49 -14q23 -2 37 -10 q10 -4 10 -13q0 -12 -10 -16h-446q-11 4 -11 16zM174 1307q0 46 31 73q29 27 76 27q18 0 34 -8q18 -9 31 -25q18 -23 21 -31q8 -25 8 -37t-8 -36q-4 -12 -21 -33q-8 -10 -29 -20q-16 -8 -34 -9q-45 0 -78 27q-31 25 -31 72z" />
<glyph unicode="j" horiz-adv-x="575" d="M-248 -512q0 10 8 31q6 16 19 28q8 8 28 21q14 8 35 8q2 0 4 -1t4 -1q6 0 17 -8q2 -2 16.5 -11.5t22.5 -15.5l67 -51q16 -12 52 -23q27 -8 84 -8q35 10 55 33q18 23 33 59q12 31 14 68q4 49 4 66v999q0 25 -12 37q-16 16 -33 20q-29 8 -43 11q-4 0 -45 12q-2 0 -5 1t-5 3 t-2 14q0 6 2 10.5t12 10.5l256 121l4 2l4 2q2 2 6 2q16 0 17 -25v-1030q0 -47 -6 -96q-6 -47 -23 -101q-14 -45 -37 -94q-16 -35 -55 -82q-29 -39 -68 -71q-33 -27 -76 -43q-37 -14 -88 -21q-33 -4 -106 -4q-29 0 -51 10q-33 14 -51 29q-20 16 -39 41q-15 20 -19 47z M160 1307q0 46 30 73q29 27 76 27q20 0 37 -8q18 -9 31 -25q18 -23 20 -31q6 -18 6 -36.5t-6 -36.5q-4 -12 -20 -33q-6 -8 -31 -20q-16 -8 -35 -9q-43 0 -75.5 27t-32.5 72z" />
<glyph unicode="k" horiz-adv-x="1095" d="M43 16q0 8 10 13q14 8 37 10q16 2 49 14q18 6 41 33q18 20 19 66v1247q0 25 -13 37q-16 16 -32 20l-43 12q-18 2 -45 11q-4 2 -8.5 6t-4.5 14q0 6 2 10q2 2 13 11l256 118l4 2l4 2q2 2 6 3q16 0 16 -23v-999q8 -27 23 -33q12 -6 24.5 -6t44.5 14q14 6 56 35q20 14 61 47 q20 16 55 51q25 27 41 47q14 20 15 33q0 18 -19 25q-14 4 -42.5 8t-43.5 8q-18 6 -18 25q0 15 12 18q16 4 29 4h381h10q8 0 12 -2l9 -8q4 -4 4 -12q0 -12 -23 -19q-37 -10 -57 -14q-37 -6 -72 -19q-37 -12 -65 -34l-287 -224q0 -6 8 -18t10 -14l412 -433q25 -29 53 -41 t49 -18q12 -4 21.5 -6t13.5 -4q14 -2 14 -15q0 -8 -2 -12q-2 -6 -14 -6h-438q-8 0 -8 6q0 2 -1 5t-1 5q0 6 10 13q6 4 26 8q16 4 29 8q16 6 25 14q10 10 10 27q0 12 -14 29q-6 8 -14.5 17t-14.5 18l-309 327v2h-2q-6 0 -9 -14q-4 -20 -4 -35v-278q0 -45 19 -66 q20 -25 43 -33q35 -12 47 -14q23 -2 37 -10q10 -4 10 -13q0 -6 -2 -10q-4 -6 -8 -6h-447q-10 4 -10 16z" />
<glyph unicode="l" horiz-adv-x="520" d="M20 16q0 8 11 13q14 8 37 10q14 2 47 14q23 8 43 33q16 18 16 66v1247q0 25 -12 37q-16 16 -33 20l-43 12q-14 2 -43 11q-8 4 -10 6q-4 4 -4 14q0 2 4 10q2 6 10 11l256 118l4 2l4 2q2 2 6 3q18 0 19 -23v-1470q0 -47 16 -66q20 -25 43 -33q35 -12 47 -14q23 -2 37 -10 q10 -4 10 -13q0 -12 -10 -16h-444q-11 4 -11 16z" />
<glyph unicode="m" horiz-adv-x="1730" d="M43 16q0 12 8 15q10 4 37 8q16 2 49 14q18 6 41 33q18 22 19 68v575q0 27 -13 39q-16 16 -32 20q-29 8 -43 11q-4 0 -46 12l-8 4q-4 4 -4 14q0 6 2 10.5t13 10.5l256 121q2 0 4 2t4 2q2 2 6 2q16 0 16 -25v-166q0 -6 8 -6q2 0 15 4l88 50q57 33 86 47q35 18 88 32 q51 14 88 15q47 0 78 -13q33 -14 51 -28q27 -23 35 -37q2 -4 10 -17.5t12 -21.5q0 -4 4 -8q6 -6 9 -10l8 -9q4 -4 10 -4t14 4q2 0 6.5 2t8.5 5l219 108q31 16 65 23q37 6 68 6q47 0 86 -23q33 -18 59 -55q27 -35 41 -78q10 -27 23 -92q6 -31 10 -92.5t4 -81.5q0 -45 -4 -139 q-6 -141 -6 -154v-57q0 -29 12 -50q12 -23 29 -32q25 -16 39 -21q31 -8 41 -10q14 -2 34.5 -6t26.5 -6q10 -4 11 -15q0 -12 -11 -16h-481q-10 4 -10 16q0 10 10 14.5t37 8.5q18 2 47 16q25 12 41 35q18 25 18 72v2q6 31 6 69q0 12 1.5 39t1.5 43q0 14 -1.5 46t-1.5 51v114 q0 43 -2 68q-4 45 -8 70q-8 41 -16 63q-12 31 -30.5 55.5t-47.5 36.5q-28 12 -68 12q-14 0 -24 -2q-15 -3 -43 -12q-25 -8 -68 -26q-33 -14 -106 -50q-2 -2 -8.5 -5t-8.5 -5q-10 -6 -10 -16v-559q0 -43 19 -68q20 -27 43 -35q33 -12 47 -14q27 -4 37 -8t10 -15 q0 -12 -10 -16h-447q-8 2 -8 16q0 12 8 15q10 4 37 8q16 2 49 14q20 8 41 35q18 25 19 68v497q0 82 -48 129q-49 49 -145 49q-25 0 -59 -12q-23 -8 -72 -33q-41 -20 -68 -38q-35 -25 -47 -39v-553q0 -43 19 -68q20 -27 43 -35q33 -12 47 -14q27 -4 37 -8t10 -15 q0 -12 -10 -16h-447q-8 2 -8 16z" />
<glyph unicode="n" horiz-adv-x="1163" d="M51 16q0 10 10.5 14.5t36.5 8.5q16 2 49 14q20 8 41 35q18 25 19 68v573q0 27 -12 39q-16 16 -33 20q-29 8 -43 11q-4 0 -45 12q-2 0 -5 1t-5.5 3t-2.5 14q0 6 2.5 10.5t12.5 10.5l256 121l4 2l4 2q2 2 6 2q16 0 16 -25v-155q4 -10 9 -11h8l8 5l219 108q31 16 66 23 q37 6 67 6q45 0 84 -23q37 -22 62 -55q23 -31 39 -78q14 -39 24 -92q6 -31 10.5 -92.5t4.5 -81.5q0 -45 -5 -139q-6 -141 -6 -154v-57q0 -29 13 -50q12 -23 28 -32q27 -16 37 -21q31 -8 41 -10q22 -3 37 -6q20 -4 27 -6q10 -4 10 -15q0 -12 -10 -16h-484q-10 4 -10 16 q0 10 10.5 14.5t36.5 8.5q23 2 49 16q25 12 41 35q18 25 19 72v2q6 31 6 69q0 12 1 39t1 43q0 14 -1 46t-1 51v114q0 43 -2 68q-4 45 -8 70q-8 41 -17 63q-12 31 -30.5 55.5t-47.5 36.5q-28 12 -67 12q-16 0 -26.5 -2t-41.5 -12q-25 -8 -67 -26q-33 -14 -107 -50 q-4 -2 -8 -5t-8 -5q-10 -6 -11 -16v-559q0 -43 19 -68q20 -27 43 -35q35 -12 47 -14q27 -4 37 -8t10 -15q0 -12 -10 -16h-447q-10 4 -10 16z" />
<glyph unicode="o" horiz-adv-x="1105" d="M76 461q0 90 37 176t100 149q66 66 149.5 105t180 39t186.5 -37q92 -39 158 -100q68 -63 106 -150q39 -84 39 -186q0 -104 -37 -193q-37 -90 -98 -151q-66 -66 -154 -103t-192.5 -37t-190.5 37q-82 35 -151 105q-59 59 -98 153q-35 84 -35 193zM242 522q0 -88 20 -170 q25 -94 62 -159q41 -72 108 -119q66 -47 160 -47q66 0 121 32q49 29 84 80q33 47 49 113q14 57 14 125q0 43 -10 104q-8 51 -31 109q-23 59 -51 104q-39 61 -68 88q-43 39 -88 60q-51 23 -106 22q-68 0 -117 -30q-51 -33 -84 -80q-34 -49 -49 -111q-14 -58 -14 -121z" />
<glyph unicode="p" horiz-adv-x="1089" d="M12 -604q0 8 11 12q14 8 36 10q14 2 47 15q23 8 44 32q18 23 18 66v1200q0 23 -14 37q-16 16 -33 20l-43 13q-14 2 -43 10q-8 4 -10 6q-4 4 -5 14q0 2 5 11q2 2 12 10l235 111q2 2 4.5 2t6.5 4h4l4 2l4 2l4 2q2 2 6 2q18 0 19 -25v-127q0 -4 4 -8q2 -2 8 -2q10 0 16 6 q80 49 154 78q68 27 147 27q55 0 97 -21q49 -25 81 -57q37 -37 64 -82q31 -51 47 -98q20 -57 29 -105q10 -57 10 -96q0 -66 -20 -137q-18 -63 -54 -121q-37 -59 -84 -105q-49 -46 -110 -79q-47 -23 -90 -37q-45 -14 -99 -15q-43 0 -86 7q-63 8 -94 16q-18 0 -18 -12 q0 -4 -1 -12.5t-1 -12.5v-428q0 -29 12 -47q14 -23 31 -33q18 -12 43 -18q33 -8 47 -10.5t39 -6.5q4 0 26 -8q10 -4 10 -12q0 -12 -10 -17h-499q-11 5 -11 17zM324 182v-16q0 -8 4 -24.5t16 -26.5q20 -16 35 -23q2 0 19.5 -8t27.5 -12l49 -13q35 -8 45 -10q14 -2 33 -2 q66 0 117 26.5t86 71.5q37 45 53 101q16 51 16 119q0 63 -4 98q-6 51 -18 100q-12 47 -35 96q-16 35 -55 82q-25 31 -76 56q-43 23 -100 24q-57 0 -103 -14q-51 -16 -96 -49l-4 -4l-4 -4l-6 -7v-561z" />
<glyph unicode="q" horiz-adv-x="1095" d="M100 428q0 101 37 190q39 92 102.5 160t153.5 109q88 41 189 41q63 0 125 -17q43 -10 114 -49h8q12 0 25 12q4 4 13.5 12.5t13.5 12.5l20 25q8 12 17 12h10q2 0 2 -1t2 -1t2 -4v-1399q0 -47 16 -66q20 -25 43 -32q35 -12 47 -15q23 -2 37 -10q10 -4 10 -12q0 -12 -10 -17 h-534q-10 4 -11 17q0 8 11 12q23 6 28 8q14 2 47 6q16 2 54 11q27 6 51 18q20 10 39 33q14 16 14 47v569v6h-4q-6 0 -16 -8l-94 -53q-59 -33 -76 -39q-35 -14 -72 -24q-31 -8 -78 -8.5t-94 18.5q-45 18 -84 53q-31 29 -65 80q-27 39 -52 96q-14 33 -30 103q-11 43 -11 104z M252 416q0 -78 26.5 -137.5t71.5 -104.5q43 -43 96 -68q47 -23 107 -22q61 0 129 29q14 4 27 12l28 16q14 8 25 17q12 8 14 14v455q0 61 -18 108q-16 43 -53 76q-29 27 -76 43q-41 14 -86 14q-68 0 -119 -32q-55 -37 -92 -93q-37 -57 -60 -143q-20 -80 -20 -182v-2z" />
<glyph unicode="r" horiz-adv-x="745" d="M51 16q0 8 10 13q14 8 37 10q16 2 49 14q18 6 41 33q18 20 19 66v530q0 25 -12 37q-16 16 -33 20q-29 8 -43 11q-4 0 -45 12q-2 0 -5 1t-5.5 3t-2.5 14q0 6 2.5 10.5t12.5 10.5l256 121l4 2l4 2q2 2 6 2q16 0 16 -25v-162v-8q0 -4 7 -4q4 0 8 4l6 6l39 54q25 35 45 55 q25 25 49.5 43t50.5 18q23 0 49 -8q33 -10 60 -20q20 -8 49 -25q23 -12 23 -22.5t-6.5 -29t-16.5 -38.5q-12 -25 -20 -35q-12 -14 -27 -14h-2q-25 8 -37 14l-37 17q-8 4 -39 14q-18 6 -39 6q-35 0 -59 -16q-33 -23 -51 -43q-20 -23 -37 -54q-14 -27 -15 -51v-452 q0 -31 13 -50q10 -16 33 -30q18 -12 43 -19q35 -8 45 -10q8 -2 22 -5t19 -3q16 -2 26 -6t10 -13q0 -12 -10 -16h-502q-10 4 -10 16z" />
<glyph unicode="s" horiz-adv-x="684" d="M66 217q0 12 2 14t14 2q6 0 12 -6q4 -4 8 -12t6.5 -14l6.5 -15q27 -51 37 -67q14 -20 47 -49q23 -20 57.5 -32.5t75.5 -12.5q29 0 57 14q27 14 45 35q16 20 27 49q10 31 10 55q0 51 -31 92q-33 43 -73 72q-55 39 -97 64q-70 41 -98 65q-43 37 -73.5 86t-30.5 119 q0 35 12 65q14 37 33 58q29 33 45 47q31 27 47 37q18 10 63 28q43 16 97 17q33 0 59 -6q18 -4 51 -13q23 -6 39 -12q6 -2 13 -7l8 -5q2 -2 5 -4t5 -4.5t2 -4.5q3 -6 6 -18q2 -8 2 -33v-45v-92q0 -12 -2 -16q-4 -6 -16 -6q-10 0 -15 4q-2 2 -6 14q-16 41 -29 61 q-20 33 -41 58q-18 23 -53 39q-33 16 -69 16q-25 0 -52 -10q-25 -9 -43 -31q-20 -25 -28 -51q-10 -35 -11 -70q16 -47 46 -74q25 -23 71 -51q51 -33 105 -63q53 -29 98 -72q47 -43 72 -88q29 -51 28 -121q0 -58 -24 -104q-27 -49 -64 -78q-45 -35 -92 -51.5t-106 -16.5 q-45 0 -80 9q-43 10 -78 24h-4q-10 0 -17 -6q-2 -2 -6 -5t-6 -5l-12 -13q-4 -4 -15 -4h-18q-2 0 -4 27q0 4 -3 26.5t-5 39.5l-8 81q-2 29 -2 70z" />
<glyph unicode="t" horiz-adv-x="645" d="M45 790.5q0 8.5 2 12.5l4 8q27 16 76 57l31.5 27.5l40.5 36.5q10 14 26 33q6 6 17.5 20t17.5 23q25 29 37 39q20 16 32.5 16t12.5 -14l-4 -21q-4 -20 -8 -33q-2 -10 -6.5 -20t-6.5 -19q-2 -6 -5 -19t-5 -19q0 -8 2 -13q2 -6 15 -6h254q16 0 22 -6q6 -4 8 -14l4 -17 q2 -4 3 -14t1 -14q4 -20 5 -31q0 -6 1 -15.5t1 -13.5q0 -6 -9 -6h-301h-6v-8v-551q0 -35 8 -57q10 -25 21 -39q12 -14 29 -25q14 -8 30 -8q43 0 78 14q31 12 53 29l39 29q20 14 39 14q8 0 8 -6q0 -18 -2 -23l-6 -12q-2 -2 -20 -27q-16 -23 -52 -53q-31 -28 -73 -49 q-45 -23 -90 -23q-57 0 -97 21q-43 23 -67 53q-29 37 -41 76q-12 43 -12 90v555h-76q-10 0 -23 8q-8 6 -8 14.5z" />
<glyph unicode="u" horiz-adv-x="1122" d="M41 834q0 10 2 14q2 6 12 8l230 68q4 2 12 2q2 0 6 1t6 1q10 0 10 -19v-690q0 -33 23 -61q25 -31 53 -47q39 -20 70 -29q41 -10 72 -10q10 0 22 2q6 0 43 10q33 8 49 14q29 10 43 21q4 4 14.5 9l14.5 7q14 8 31 29v571q-4 31 -27 51q-20 18 -49 25q-8 4 -16 4 q-4 0 -9.5 1t-7.5 1q-6 0 -10 4t-4 13q0 10 2 14q2 6 12 8l229 68q4 2 13 2q2 0 6 1t6 1q6 0 10 -10v-721q6 -47 27 -64q23 -18 63 -18l60 4q4 0 4 -6q0 -2 1 -5.5t1 -5.5t-4 -6l-12 -8l-267 -108l-3 -2q-5 -3 -7 -3l-8 -2q-8 0 -8 9q0 2 -1 8t-1 8v96q-4 4 -11 4h-4 q-2 0 -2 -2l-159 -78q-23 -8 -41.5 -16t-36.5 -14q-25 -8 -39 -11q-29 -4 -47 -4q-47 0 -86 9q-47 10 -80 26q-31 16 -60 47q-25 27 -24 72v608q-4 31 -27 51q-20 18 -51 25q-8 4 -14 4q-4 0 -9.5 1t-7.5 1q-6 0 -10 4.5t-4 12.5z" />
<glyph unicode="v" horiz-adv-x="1034" d="M0 881q0 18 25 18h444q6 0 6 -6q0 -2 1 -6l1 -4q0 -16 -10 -19q-25 -6 -29 -6h-35q-25 0 -34 -4q-14 -6 -27 -18q-10 -10 -10 -37v-13q0 -4 1 -8l1 -4l203 -555q4 -8 6 -14q4 -10 12 -10q4 0 8 4t8 12q2 2 2 5t2 5l5 8l77 201l54 141l32 91l19 53q6 18 6 28q0 4 1 9.5 t1 7.5q0 35 -22.5 57.5t-53.5 34.5q-6 2 -22 2h-27q-16 4 -22 8q-8 6 -9 21q0 9 7 12q8 4 16 4h379q8 -2 8 -6q0 -2 1 -5t1 -5q0 -8 -2 -10.5t-10 -6.5q-4 -2 -21 -6q-10 -2 -35 -6q-20 -2 -38 -20q-23 -23 -31 -37q-14 -25 -23 -47q-6 -16 -18 -41l-115 -295l-76 -199 l-47 -121l-24 -63l-11 -25q0 -2 -1 -4t-1 -4l-1 -2q-1 -2 -3 -5t-4 -7q-4 -10 -12 -11h-80q-10 0 -14 11q-4 8 -8 20l-265 717q-18 46 -49 80q-33 37 -78 51q-4 2 -16 2q-14 0 -20 2q-12 4 -17 8q-6 7 -6 17z" />
<glyph unicode="w" horiz-adv-x="1640" d="M8 881q0 18 25 18h444q6 0 6 -6q0 -2 1 -6l1 -4q0 -15 -12 -19q-25 -6 -27 -6h-34q-25 0 -35 -4q-14 -6 -27 -18q-10 -10 -10 -37v-13q0 -4 1 -8l1 -4l203 -555q4 -8 6 -14q4 -10 12 -10q4 0 8 4t9 12q2 2 2 5t2 5l4 8l82 209l53 144q6 14 17.5 45.5t15.5 44.5l16 49 q-18 46 -49 80q-33 37 -78 51q-4 2 -16 2q-14 0 -21 2q-12 4 -16 8q-6 6 -6 17q0 18 24 18h445q8 0 8 -6v-10q0 -16 -10 -19q-25 -6 -29 -6h-35q-25 0 -35 -4q-14 -6 -26 -18q-10 -10 -10 -37v-13q0 -4 1 -8l1 -4l202 -555q4 -8 6 -14q4 -10 13 -10q4 0 8 4t8 12q2 2 2 5 t2 5l4 8l78 201q33 84 53 141l33 91l19 53q8 25 8 28v17q0 35 -22.5 57.5t-53.5 34.5q-6 2 -23 2h-26q-12 4 -21 8q-10 6 -10 21q0 9 6 12q8 4 17 4h379q8 -2 8 -6q0 -2 1 -5t1 -5q0 -8 -2 -10.5t-11 -6.5q-4 -2 -20 -6q-10 -2 -35 -6q-20 -2 -39 -20q-23 -23 -30 -37 q-14 -25 -23 -47q-6 -16 -18 -41l-115 -295l-76 -199l-47 -121l-25 -63l-10 -25q0 -2 -1 -4t-1 -4l-1 -2q-1 -2 -3 -5t-4 -7q-4 -10 -12 -11h-80q-10 0 -15 11q-4 8 -8 20l-221 600l-98 -250l-64 -170q-14 -37 -25.5 -64.5l-15.5 -37.5l-20 -55l-8 -21q0 -2 -2 -4t-2 -4 t-7 -14q-4 -10 -14 -11h-78q-10 0 -14 11q-4 8 -8 20l-264 717q-18 46 -50 80q-33 37 -77 51q-4 2 -19 2q-12 0 -18 2q-12 4 -17 8q-6 7 -6 17z" />
<glyph unicode="x" horiz-adv-x="1015" d="M16 881q2 18 25 18h373q6 0 6 -6q0 -2 1 -6l1 -4q0 -6 -16 -11q-4 0 -33 -10q-20 -6 -33 -16q-16 -12 -16 -33q0 -12 2 -18q2 -8 8 -15l153 -190l17 -17l12 -12h4q6 0 15 8l147 170q14 16 18 27q6 12 7 31q0 29 -17 41q-14 12 -35 18q-6 2 -18 5t-19 5q-16 6 -16 23l1 4 l1 4q0 2 10 2h308q6 0 6 -2l1 -5q1 -5 1 -9l-1 -4q-1 -4 -1 -7q0 -4 -6 -8q-37 -12 -51.5 -18t-39.5 -23q-20 -14 -34 -30l-35 -41l-195 -232q-2 -4 -2 -8l-1 -3q-1 -3 -1 -5t3 -7t3 -8q4 -10 9 -14l12 -12q6 -6 8 -6l340 -406q6 -6 12 -8q4 -2 10.5 -2t8.5 -2q12 -4 16 -6 q6 -4 6 -14.5t-2 -12.5q-6 -6 -8 -6h-395q-8 0 -8 8q0 4 -1 7l-2 3q0 12 17 17q6 0 16 2t21 4q27 4 37 10q16 10 16 37q0 14 -8 25q-12 16 -17 20l-172 215q-25 20 -36 21q-12 -6 -19 -13l-14 -14l-158 -203q-10 -12 -12 -20q-4 -12 -4 -21q0 -16 14 -30q12 -12 33 -23 q18 -9 37 -12q25 -4 30.5 -4t5.5 -4q0 -2 1.5 -5.5t1.5 -5.5t-1 -6l-2 -4q0 -4 -6 -4h-319q-10 0 -14 4q-2 2 -3 14q0 2 15 11q16 8 37 20q10 6 19 13.5t20 13.5q12 6 32 22l275 330q0 2 -1 5l-1 3q0 2 -6 10l-306 375q-12 12 -22 17l-14.5 7l-14.5 7q-20 8 -26 12 q-11 7 -11 17z" />
<glyph unicode="y" horiz-adv-x="1081" d="M-25 881q0 18 25 18h444q6 0 7 -6q0 -2 1 -6l1 -4q0 -15 -13 -19q-25 -6 -26 -6h-35q-25 0 -35 -4q-14 -6 -26.5 -18.5t-12.5 -36.5l1 -4q1 -4 1 -9v-12l260 -555q4 -8 6 -14q4 -10 13 -10q4 0 8 4t8 12q0 2 2 5t2 5l4 8l78 201q33 84 53 141l33 91l19 53q8 25 8 28v17 q0 35 -22.5 57.5t-53.5 34.5q-6 2 -23 2h-26q-12 4 -21 8q-10 6 -10 21q0 9 6 12q8 4 17 4h379q8 -2 8 -6q0 -2 1 -5t1 -5q0 -8 -2 -10.5t-11 -6.5q-4 -2 -20 -6q-10 -2 -35 -6q-23 -2 -39 -20q-23 -23 -30 -37q-14 -25 -23 -47q-6 -16 -18 -41l-5 -9l-462 -1149l-70 -149 q-6 -10 -18 -20q-6 -6 -25 -13q-10 -4 -31 -8q-5 -1 -9 -1q-3 0 -9 0.5t-8 0.5q-35 0 -58 23q-20 20 -20 57q0 27 16 43q12 12 35 22q25 10 45.5 16.5t36.5 22.5l10 11q2 2 5 4t5 4t5 6l14 14l6 13l84 190l51 119l27 61q2 6 4 10.5t3 7.5l1 3q0 10 -6 22q-2 6 -5 13.5 t-5 11.5l-86 168l-248 518q-18 46 -49 80q-33 37 -78 51q-4 2 -19 2q-12 0 -18 2q-12 4 -16 8q-7 7 -7 17z" />
<glyph unicode="z" horiz-adv-x="913" d="M61 20q0 4 1 9l1 4q0 6 5 12l503 690l8.5 12.5l8.5 12.5q8 12 8 24q0 4 -12 4q-4 0 -15.5 1.5t-19.5 1.5t-22.5 1t-22.5 1h-39h-205q-35 0 -55 -15q-22 -15 -37 -37q-12 -16 -23 -49l-8 -24.5l-8 -24.5q-2 -10 -14 -39q-6 -14 -19 -14h-6q-4 0 -4 4l57 334q4 10 6.5 10 t6.5 1t8 1q8 0 12 -6q0 -2 4 -7t4 -7q2 -4 13 -15q8 -8 18 -10q4 0 17.5 -1t21.5 -1q6 0 24.5 -1t32.5 -1q10 0 40 -1t48 -1q16 0 58.5 -1t68.5 -1q84 0 138 2q29 2 87 3t89 1q6 -2 8 -8q2 -4 2 -15q0 -6 -4 -16q-6 -14 -12 -20l-517 -707q-2 -2 -3 -5t-3 -5q-4 -8 -4 -13 v-6q2 -2 6 -2h385q29 0 47.5 10.5t34.5 30.5q25 29 29 37l22 39q12 18 23 29q12 12 23 12q14 0 14 -12l-74 -197q-2 0 -4 -10q-4 -12 -6 -17q0 -2 -4 -6t-4 -6q-4 -6 -11 -6h-704q-23 0 -23 20z" />
<glyph unicode="{" horiz-adv-x="1056" d="M207 702q0 20 8 31q10 12 21 12q74 0 112 39q41 41 41 125q0 57 -12 113q-6 31 -14.5 59.5t-14.5 51.5q-10 39 -26 116q-12 57 -13 119q0 86 35 143q37 63 94 105q58 43 129 67q61 23 140 29q45 4 61 4h45q37 0 37 -30q0 -16 -6 -28.5t-21 -12.5h-35q-25 0 -36 -3 q-63 -10 -107 -28q-49 -23 -84 -53q-33 -31 -55 -78q-20 -43 -21 -103q0 -41 4 -118q2 -49 17 -125q2 -14 5 -44t5 -44q6 -43 6 -84q0 -66 -20.5 -109t-42.5 -65l-31 -31l-22 -23q-6 -6 -15 -18q-6 -10 -6 -17q0 -9 6 -18q8 -12 15 -18l24 -25q20 -20 33 -35q16 -23 20 -28 q9 -15 19 -37q6 -16 14 -49q6 -29 6 -57.5t-6 -72.5q-2 -8 -6 -48t-8 -68q-10 -57 -13 -111q-4 -78 -4 -110q0 -82 27 -134q28 -52 68 -86q41 -35 88 -53q35 -14 86 -26q31 -10 49 -11h33q8 0 12 -10q2 -6 2 -29q0 -33 -14 -32h-33q-29 0 -43 2q-57 4 -88 10q-66 12 -99 25 q-61 23 -98 45q-53 31 -84 65q-37 41 -59 94q-23 55 -23 123q0 58 13 117q14 68 26 115q6 25 14.5 53.5t14.5 56.5q12 51 12 103q0 47 -8 79q-10 41 -27 66q-18 29 -47 45q-29 18 -71 21q-8 2 -21 14q-8 8 -8 24z" />
<glyph unicode="|" horiz-adv-x="430" d="M150 -35v1680h131v-1680h-131z" />
<glyph unicode="}" horiz-adv-x="1062" d="M209 -324q0 23 2 29q4 10 12 10h33q18 0 49 11q47 12 84 26q47 18 88 53q40 34 68 86q29 53 28 134q0 33 -4 110q-2 53 -12 111q-4 23 -7 44t-5 42.5t-4 29.5q-4 29 -4 72q0 39 4 58q8 33 14 49q4 10 20 37q4 6 21 28q12 14 33 35q8 8 13 14.5t9 10.5q12 12 17 18 q6 9 6 18q0 6 -6 17q-8 12 -15 18l-24 23q-18 18 -29 31q-23 23 -43 65.5t-20 108.5q0 55 4 84l12 88q14 76 16 125q4 78 4 118q0 59 -20 103q-20 45 -57 78q-35 31 -84 53q-43 18 -105 28q-12 2 -39 3h-32q-16 0 -23 12q-4 8 -4 29q0 31 37 30h43q18 0 63 -4q78 -6 140 -29 q68 -23 126 -67q57 -41 95 -105q37 -61 37 -143q0 -61 -13 -119q-8 -39 -28 -116l-27 -111q-12 -55 -12 -113q0 -27 6 -51q8 -29 22 -47q18 -23 47 -39q20 -12 78 -27q12 0 21 -12q8 -10 8 -31q0 -16 -8 -24q-12 -12 -21 -14q-43 -2 -71 -21q-29 -16 -47 -45 q-16 -25 -27 -66q-8 -33 -8 -79q0 -51 12 -103l27 -110q23 -86 28 -115q12 -58 13 -117q0 -68 -23 -123q-23 -53 -59 -94q-29 -31 -86 -65q-39 -25 -97 -45q-33 -12 -98 -25q-31 -6 -88 -10q-14 -2 -43 -2h-33q-14 -1 -14 32z" />
<glyph unicode="~" d="M90 469q0 76 19 135q18 58 49 98q31 41 69.5 61.5t85.5 20.5q33 0 49 -2q33 -4 54 -12q43 -16 71 -35q70 -43 101 -65l17 -11.5t16 -11.5l34 -22q25 -12 37 -17q25 -8 37 -8q16 0 41 10q18 8 35 31q18 25 26 57q8 31 9 82h118q0 -72 -18 -131q-20 -61 -49 -100 q-31 -39 -72 -62q-39 -20 -84 -20q-55 0 -96 20.5t-90 53.5q-8 6 -88 57l-57.5 32.5t-43.5 16.5q-12 2 -41 2q-20 0 -36 -8q-23 -10 -35 -29q-18 -27 -27 -55q-12 -45 -12 -88h-119z" />
<glyph unicode="&#xa2;" horiz-adv-x="933" d="M88 -358l148 417q-68 61 -107 147.5t-39 188.5q0 141 35 241.5t94 160.5q66 66 143 94q76 29 181 35l69 194h129l-67 -194l49 -6q16 -2 45 -15q25 -10 41 -24q23 -18 33 -37q4 -6 8 -18.5t4 -18.5q0 -39 -23 -53q-27 -16 -57 -17q-25 0 -41 8q-25 12 -35 20.5t-30 29.5 q-8 8 -16.5 14t-14.5 14l-242 -682q39 -29 84 -43t109 -14q49 0 86 14q41 16 76 41q20 16 30 27q4 4 10.5 9t10.5 10l8 10q6 6 11 12t9 10q10 10 13 10q8 0 14 -6q8 -8 8 -14v-10q0 -4 -6 -11q-70 -100 -168 -157q-96 -55 -217 -56q-68 0 -131 23l-125 -354h-129zM262 479 q0 -53 10 -119q8 -47 33 -104l215 604q-22 -3 -43 -12q-31 -12 -37 -19q-51 -29 -82 -65q-37 -43 -55 -84q-22 -46 -31 -98q-10 -58 -10 -103z" />
<glyph unicode="&#xa3;" d="M117 129q0 45 16.5 76t46.5 57q27 25 66 37q43 14 76 14q35 0 63.5 -6t48.5 -16l29 -15q9 -6 12 -6q6 20 6 41q0 82 -28 162q-25 66 -66 150h-211q-8 0 -16 4q-6 3 -6 12v25q0 9 6 12q8 4 16 4h182l-39 78q-12 27 -32 80q-14 39 -25 84q-8 39 -8 88q0 76 29 145 q28 68 73 117t111 78q63 29 131 28q76 0 133 -16q59 -16 115 -51q49 -31 80 -74q29 -41 28 -90q0 -8 -4 -25q-2 -12 -10 -22q-6 -10 -18.5 -16.5t-24.5 -6.5q-23 0 -37 8.5t-26 24.5q-10 14 -20.5 32.5t-20.5 39.5q-25 43 -41 63q-20 27 -45 45q-23 16 -56 27q-27 8 -73 8 q-39 0 -74 -14q-41 -16 -66 -39q-29 -25 -47 -60q-16 -31 -16 -73q0 -78 16.5 -133.5t42.5 -114.5q23 -51 55 -107q29 -47 54 -104h188q8 0 16.5 -4t8.5 -12v-25q0 -8 -8.5 -12t-16.5 -4h-166q10 -25 23 -78q8 -35 8 -86q0 -35 -2 -56q0 -10 -4 -30.5t-4 -30.5 q-2 -20 -11 -61q-4 -25 -16 -56q23 -25 51 -45q25 -20 58 -39q6 -4 63 -26q31 -12 64 -13q46 0 79 25q37 27 56 53q27 37 33 58q10 31 10 32h41q-2 -33 -19 -86q-16 -57 -47 -98q-33 -45 -90 -80q-53 -33 -139 -33q-45 0 -84 21q-35 18 -68 45q-20 16 -47 47q-18 23 -20 23 q-12 -16 -37 -46q-12 -14 -49 -43q-31 -25 -58 -34q-31 -12 -63 -13h-8q-45 0 -76 12.5t-53 34.5q-18 18 -28.5 49t-10.5 60zM166 125q0 -20 6 -38.5t22.5 -35t35 -25t44.5 -8.5q37 0 68 19q33 20 53 43q22 25 37 49l19 37q-12 16 -25 29q-4 4 -10 9t-13.5 10t-11.5 9 q-16 14 -45 25q-23 8 -55 8q-25 0 -49 -10q-18 -8 -39 -28.5t-29 -41.5q-8 -22 -8 -51z" />
<glyph unicode="&#xa5;" horiz-adv-x="1568" d="M4 1393q0 6 2 10q2 6 12 6h574q10 0 12 -4q4 -8 4 -12q0 -23 -16 -23q-20 -2 -45 -4q-16 -2 -45 -10q-16 -4 -35 -23q-14 -14 -14 -41q0 -25 12 -43l338 -540q6 -6 10 -16l2 -5q4 -4 10 -4q8 0 15 8l14 21l268 458l8.5 16.5l10.5 19t10 16.5q14 27 14 57.5t-12 44.5 q-14 16 -29 25q-25 12 -41 14l-43 6q-12 0 -14 6q-2 4 -2 17q0 8 2 12t14 4h467q9 0 13 -6q2 -4 2 -10q0 -8 -4 -17l-13 -6q-8 -4 -16 -4q-6 0 -19 -4q-49 -12 -86 -37q-35 -23 -71 -63q-8 -8 -15 -17q-4 -4 -7 -8l-3 -4l-356 -612h346q15 0 25 -7q10 -6 10 -18v-37 q0 -10 -10 -16q-12 -8 -25 -8h-385v-154h385q12 0 25 -8q10 -6 10 -19v-35q0 -12 -10 -18q-9 -6 -25 -6h-385v-115q0 -55 31 -86q33 -33 106 -41q2 0 8 -1t11 -1q6 0 22 -4q8 -2 21 -6q8 -2 8 -10v-11q0 -14 -10 -18q-6 -2 -25 -2h-539q-18 0 -24 2q-10 4 -10 18v11 q0 6 8 10q4 2 16 6t23 4q4 0 11 1t9 1q80 10 109 39q31 31 30 88v115h-387q-15 0 -24 6q-10 6 -11 18v35q0 12 11 19q12 8 24 8h387v131v6l-4 8l-6 9h-377q-12 0 -24 8q-10 6 -11 16v37q0 12 11 18q9 6 24 7h324l-348 557l-37 55q-16 25 -43 51.5t-51.5 42.5t-59.5 27l-16 4 q-4 2 -11.5 2t-11.5 2q-12 2 -22 4q-8 2 -16.5 2t-12.5 8q-2 5 -2 17z" />
<glyph unicode="&#xa9;" horiz-adv-x="1716" d="M90 723q0 109 27 203q25 90 78 182q47 82 118.5 153.5t153.5 118.5q84 49 182 76q102 29 203 29q98 0 201 -29q98 -27 182 -76q82 -47 153.5 -118.5t118.5 -153.5q53 -92 78 -182q27 -94 27 -203t-27 -203q-25 -86 -78 -180q-49 -86 -118 -156q-72 -72 -154 -118 q-84 -49 -182 -76q-102 -29 -201 -29q-100 0 -203 29q-98 27 -182 76q-82 47 -154 118q-70 70 -118 156q-53 94 -78 180q-27 94 -27 203zM186 725q0 -92 25 -178q25 -88 65 -158q43 -74 105 -135q63 -63 133 -104q68 -39 160 -66q86 -25 176 -25t176 25q92 27 160 66 q74 43 135 104q57 57 102 135q45 76 68 158q25 86 25 178q0 88 -25 174t-68 160q-45 78 -102 135t-135 102q-74 43 -160 68t-176 25t-176 -25t-160 -68t-133 -102q-61 -61 -105 -135q-39 -68 -65 -160q-25 -86 -25 -174zM358 731q0 109 41 203t109 156q72 66 164 102 q86 35 200 35q53 0 115 -10q55 -9 117 -25q23 -6 41 -14q25 -10 29 -11q2 2 8 4.5t12 2.5h18q8 0 9 -13v-203q0 -6 -2 -6h-15h-4q-2 0 -6 4q0 2 -2 6.5t-4 8.5q-4 6 -8 14q-49 96 -125 148q-74 49 -172 49q-96 0 -166 -31t-119 -86t-74 -131q-25 -78 -24 -164q0 -88 28 -178 q27 -82 80.5 -147.5t128.5 -102.5q78 -37 176 -37q55 0 105 17q45 14 88 45q35 25 74 69q31 37 59 84q0 4 8 4h8q8 0 9 -10l-1 -2q-1 -2 -1 -4t-1 -4l-1 -2l-93 -201q-2 -4 -8 -4q-16 6 -20 6h-15q-18 0 -49 -6q-16 -4 -35.5 -8t-31.5 -8l-72 -15q-49 -8 -68 -8 q-102 0 -196 35q-92 35 -162 94t-111 150q-41 88 -41 194z" />
<glyph unicode="&#xad;" horiz-adv-x="911" d="M86 440v138h741v-138h-741z" />
<glyph unicode="&#xae;" horiz-adv-x="1701" d="M90 723q0 109 27 203q25 90 78 182q47 82 118.5 153.5t153.5 118.5q84 49 182 76q102 29 203 29q98 0 201 -29q98 -27 182 -76q82 -47 153.5 -118.5t118.5 -153.5q53 -92 78 -182q27 -94 27 -203t-27 -203q-25 -86 -78 -180q-49 -86 -118 -156q-72 -72 -154 -118 q-84 -49 -182 -76q-102 -29 -201 -29q-100 0 -203 29q-98 27 -182 76q-82 47 -154 118q-70 70 -118 156q-53 94 -78 180q-27 94 -27 203zM186 725q0 -92 25 -178q25 -88 65 -158q43 -74 105 -135q63 -63 133 -104q68 -39 160 -66q86 -25 176 -25t176 25q92 27 160 66 q74 43 135 104q57 57 102 135q45 76 68 158q25 86 25 178q0 88 -25 174t-68 160q-45 78 -102 135t-135 102q-74 43 -160 68t-176 25t-176 -25t-160 -68t-133 -102q-61 -61 -105 -135q-39 -68 -65 -160q-25 -86 -25 -174zM449 1147v14v2q2 2 4 2t6 1t6 1h18h35q43 0 133 4.5 t133 4.5h62q41 -2 96 -25q47 -18 80 -51q35 -35 53 -78q20 -47 21 -96q0 -37 -13 -68q-14 -33 -28 -51q-16 -20 -45 -41q-8 -6 -58 -31l183 -297q23 -39 55 -65q41 -33 72 -45q6 0 6 -2v-7q0 -10 -4 -12t-17 -2q-53 0 -94 14q-45 16 -84 50q-10 10 -35 39q-2 4 -35 51 l-153 241l-4 2l-142 7h-4h-6l-2 -4q-2 -2 -2 -5v-276q0 -12 4 -29q2 -8 15 -20q6 -6 26 -15q10 -4 39 -8l4 -1q4 -1 6 -1t6.5 -1t8.5 -1t8 -2t8 -2h12q6 0 6 -2v-2v-14q-2 -2 -2 -4.5t-4 -2.5h-368q-4 0 -4 3v10v8v2q0 2 4 2h12q2 0 7 2t9 2t8.5 1t6.5 1t7 1l5 1 q37 10 47 27q12 18 12 43v635q0 29 -12 47q-8 12 -29 24q-14 8 -32 13q-10 2 -21 2h-22q-4 0 -4 2v2zM686 768l2 -16q0 -8 2 -11q4 -4 8 -4h11q2 0 6 -1t8 -1h18q4 0 10.5 -1t10.5 -1q61 0 98 15q47 18 68 40q25 27 37 66q10 31 10 84q0 45 -17 88q-16 41 -43 66 q-29 27 -67 38q-43 14 -82 15h-16q-2 0 -7.5 -1t-7.5 -1h-14h-19l-4 -1q-4 -1 -6 -1q-6 0 -6 -8v-365z" />
<glyph unicode="&#xb4;" horiz-adv-x="698" d="M168 1102q0 2 4 6l213 295q16 23 39 37q18 12 37 12q29 0 51 -22q20 -20 20 -52q0 -35 -18 -55q-25 -27 -37 -39l-268 -217q-4 -2 -8 -2h-4l-2 2l-23 29q-4 4 -4 6z" />
<glyph unicode="&#x2000;" horiz-adv-x="864" />
<glyph unicode="&#x2001;" horiz-adv-x="1730" />
<glyph unicode="&#x2002;" horiz-adv-x="864" />
<glyph unicode="&#x2003;" horiz-adv-x="1730" />
<glyph unicode="&#x2004;" horiz-adv-x="575" />
<glyph unicode="&#x2005;" horiz-adv-x="432" />
<glyph unicode="&#x2006;" horiz-adv-x="286" />
<glyph unicode="&#x2007;" horiz-adv-x="286" />
<glyph unicode="&#x2008;" horiz-adv-x="215" />
<glyph unicode="&#x2009;" horiz-adv-x="344" />
<glyph unicode="&#x200a;" horiz-adv-x="94" />
<glyph unicode="&#x2010;" horiz-adv-x="911" d="M86 440v138h741v-138h-741z" />
<glyph unicode="&#x2011;" horiz-adv-x="911" d="M86 440v138h741v-138h-741z" />
<glyph unicode="&#x2012;" horiz-adv-x="911" d="M86 440v138h741v-138h-741z" />
<glyph unicode="&#x2013;" horiz-adv-x="1024" d="M86 440v138h852v-138h-852z" />
<glyph unicode="&#x2014;" horiz-adv-x="2048" d="M86 440v138h1876v-138h-1876z" />
<glyph unicode="&#x2018;" horiz-adv-x="698" d="M139 1378q0 31 21 52q23 23 53 22q18 0 36.5 -12.5t37.5 -36.5l213 -295q4 -4 4 -6t-4 -6l-23 -29q-4 -4 -8 -4l-4 4l-270 217q-12 12 -37 39q-19 20 -19 55z" />
<glyph unicode="&#x2019;" horiz-adv-x="464" d="M129 1327q0 16 10 33q6 10 25 24q16 12 33 19q18 6 36 6q20 0 39 -6q16 -6 33 -19q18 -14 25 -24q8 -14 8 -33q0 -39 -8 -94q-2 -16 -8.5 -61.5l-10.5 -73.5q-10 -74 -22 -150q-12 -74 -19 -135h-75q-4 70 -15 137l-12 76t-10 72l-11.5 70.5t-9.5 64.5q-8 55 -8 94z" />
<glyph unicode="&#x201c;" horiz-adv-x="833" d="M133 1329q0 14 10 31q8 14 25 26q12 10 33 17q18 6 39 6q18 0 36 -6q20 -6 33 -17q16 -12 24.5 -26t8.5 -31q0 -39 -8 -94l-8.5 -61.5t-10.5 -73.5q-10 -74 -22 -150q-12 -74 -19 -135h-75q-4 70 -15 135l-12 77t-10 73l-11.5 70.5t-9.5 64.5q-8 55 -8 94zM500 1329 q0 14 10 31q8 14 25 26q10 8 34 17q18 6 37 6t37 -6q20 -6 33 -17q16 -12 24.5 -26t8.5 -31q0 -41 -9 -96l-8 -61.5l-10 -73.5q-10 -72 -22.5 -145.5t-18.5 -135.5h-76q-4 57 -8 86l-12 98q-4 25 -7 49.5t-8 49.5q-8 49 -14 92q-2 8 -6 36.5l-6 43.5q-4 49 -4 57z" />
<glyph unicode="&#x201d;" horiz-adv-x="833" d="M133 1329q0 14 10 31q8 14 25 26q12 10 33 17q18 6 39 6q18 0 36 -6q20 -6 33 -17q16 -12 24.5 -26t8.5 -31q0 -39 -8 -94l-8.5 -61.5t-10.5 -73.5q-10 -74 -22 -150q-12 -74 -19 -135h-75q-4 70 -15 135l-12 77t-10 73l-11.5 70.5t-9.5 64.5q-8 55 -8 94zM500 1329 q0 14 10 31q8 14 25 26q10 8 34 17q18 6 37 6t37 -6q20 -6 33 -17q16 -12 24.5 -26t8.5 -31q0 -41 -9 -96l-8 -61.5l-10 -73.5q-10 -72 -22.5 -145.5t-18.5 -135.5h-76q-4 57 -8 86l-12 98q-4 25 -7 49.5t-8 49.5q-8 49 -14 92q-2 8 -6 36.5l-6 43.5q-4 49 -4 57z" />
<glyph unicode="&#x2026;" horiz-adv-x="1558" d="M1169 102q0 16 12 50q10 27 27 43q20 20 41 28q27 10 51.5 10t50.5 -10q20 -8 41 -28.5t29 -43t8 -49.5q0 -29 -8 -51q-8 -20 -28.5 -40.5t-41.5 -28.5q-23 -8 -51 -9q-25 0 -51 11q-23 8 -41 26.5t-27 40.5q-12 33 -12 51zM649 102q0 16 12 50q10 27 27 43q20 20 41 28 q27 10 51.5 10t50.5 -10q20 -8 41 -28.5t29 -43t8 -49.5q0 -29 -8 -51q-8 -20 -28.5 -40.5t-41.5 -28.5q-23 -8 -51 -9q-25 0 -51 11q-23 8 -41 26.5t-27 40.5q-12 33 -12 51zM129 102q0 16 12 50q10 27 27 43q20 20 41 28q27 10 51.5 10t50.5 -10q20 -8 41 -28.5t29 -43 t8 -49.5q0 -29 -8 -51q-8 -20 -28.5 -40.5t-41.5 -28.5q-23 -8 -51 -9q-25 0 -51 11q-23 8 -41 26.5t-27 40.5q-12 33 -12 51z" />
<glyph unicode="&#x202f;" horiz-adv-x="344" />
<glyph unicode="&#x2044;" horiz-adv-x="278" d="M625 1481h131l-1102 -1536h-129z" />
<glyph unicode="&#x205f;" horiz-adv-x="432" />
<glyph unicode="&#x2070;" horiz-adv-x="659" d="M47 969q0 74 24.5 147.5t63.5 130.5q43 61 88 96q47 35 99 35q72 0 127 -37q53 -37 90 -96q37 -61 55 -137t18 -156q0 -88 -18 -151q-25 -82 -57 -135q-35 -55 -91 -95q-49 -35 -116 -34q-59 0 -109 34q-47 35 -90 93q-41 57 -61 120q-23 72 -23 127v58zM150 952 q0 -94 8 -157q10 -82 28 -125q23 -53 58 -80q41 -31 92 -31q55 0 90 35q37 37 55 90q18 55 25 127q6 70 6 145q0 12 -1 40t-1 42q0 45 -6 88q-8 57 -17 84q-14 47 -32 74q-20 29 -54 49q-35 20 -77 21q-40 0 -68 -19q-27 -18 -47 -51q-23 -37 -33 -72q-8 -25 -16 -86 q-4 -29 -8 -90q-2 -31 -2 -84z" />
<glyph unicode="&#x2122;" horiz-adv-x="3430" d="M1528 8v25v4q0 4 8 4q66 0 102 18q35 16 53 50q20 33 23 71q2 14 3 43t1 43q4 86 16 254l17 246q6 78 14 240q4 78 4 233v37q0 25 -14 41t-35 29q-22 12 -43 18q-20 6 -33 6q-8 0 -8 8v25q0 2 1 2t1 2t6 2h289q16 -4 18.5 -6t5.5 -4t5 -5t4 -5l469 -1047q2 -2 6 -10 q2 -6 10 -6q10 0 16.5 6t8.5 12l463 1026q10 20 18 29q10 10 21 10h290q6 0 6.5 -2t1.5 -2t1 -2v-25l-2 -6q0 -2 -7 -2l-3 -1q-3 -1 -9 -2t-12 -1q-20 -2 -47 -16q-25 -12 -45 -33q-23 -23 -23 -55l62 -1106q0 -29 14 -49.5t37 -32.5q25 -14 43 -19q35 -8 45 -10 q29 -4 35 -4h14q8 0 8 -4v-4v-25v-6q0 -2 -8 -2h-567q-8 0 -8 8v25q0 8 8 8q35 0 55 2q39 4 57 10q31 10 47 27q20 20 21 47l-53 954q0 10 -6.5 10.5t-8.5 -8.5l-495 -1077q-2 -6 -25 -6h-12q-4 0 -8 8l-492 1077q-2 6 -4 11q0 4 -4 4q-8 0 -8 -13q0 -10 -4 -100 q-6 -115 -9 -158q-6 -88 -12 -188l-4 -96t-6 -96q-8 -129 -10 -170q-2 -51 -2 -119v-41q2 -16 18 -33q18 -18 41 -27q16 -6 53 -14q18 -4 62 -4q4 0 4 -4l1 -2l1 -2v-25q0 -8 -6 -8h-467q-8 0 -8 8zM63 1073v33l37 311q4 16 6 23q4 10 19 10q4 0 12 -4q6 -4 10.5 -10 l8.5 -11q2 -4 10 -8q12 -6 22 -6q2 0 11.5 -1t13.5 -1h1077q4 0 12.5 1t10.5 1q10 0 22 6q8 4 11 8l4 3q4 3 6 8q4 6 10 10q8 4 10 4q14 0 19 -10q2 -6 6 -23l37 -311v-33q0 -4 -6 -4h-19q-4 0 -6 2l-4 16q0 4 -1 10.5t-3 10.5q-8 41 -15 66q-10 41 -22 61 q-18 33 -38.5 51.5t-61.5 28.5h-385q-4 0 -10.5 -1t-10.5 -3q-8 -2 -8 -25v-1106q0 -31 14 -53q12 -18 41 -41q25 -18 60 -31q31 -10 73 -14h29h29q6 0 6 -4l1 -2l1 -2v-25l-1 -2q-1 -2 -1 -4t-6 -2h-686q-6 0 -6.5 2t-1.5 3l-1 3v25l1 2l1 2q0 4 7 4h28h29q41 4 72 14 q39 14 61 31q29 23 41 41q14 23 14 53v1106q0 23 -8 25q-4 2 -10 3t-10 1h-385q-37 -10 -60 -29q-20 -18 -39 -51q-12 -20 -22 -61l-17 -66q-2 -4 -3 -10t-1 -11l-4 -16q-2 -2 -6 -2h-18q-7 0 -7 4z" />
<glyph unicode="&#xe000;" horiz-adv-x="900" d="M0 900h900v-900h-900v900z" />
<glyph unicode="&#xfb01;" horiz-adv-x="1198" d="M684 16q0 8 11 13q14 8 36 10q16 2 50 14q18 6 41 33q18 20 18 66v530q0 25 -12 37q-16 16 -33 20q-29 8 -43 11q-4 0 -45 12q-2 0 -5 1t-5 3t-2 14q0 6 2 10.5t12 10.5l256 121l4 2l4 2q2 2 6 2q16 0 17 -25v-751q0 -45 18 -66q23 -27 41 -33q33 -12 49 -14 q23 -2 37 -10q10 -4 10 -13q0 -12 -10 -16h-446q-11 4 -11 16zM799 1307q0 46 31 73q29 27 76 27q18 0 34 -8q18 -9 31 -25q18 -23 21 -31q8 -25 8 -37t-8 -36q-4 -12 -21 -33q-8 -10 -29 -20q-16 -8 -34 -9q-45 0 -78 27q-31 25 -31 72zM41 16q0 10 8 13q14 8 37 10 q16 2 49 14q18 6 41 33q18 20 19 66v606q0 10 -13 10h-108q-6 0 -23 8q-10 6 -10 23q0 12 10 16l29 14q6 2 19.5 5.5t17.5 5.5q25 6 39 14q12 6 28 18q10 8 11 27v33q0 82 14 201q12 98 47 190q33 86 94 164q57 72 152 119q66 33 115 49t118 16q14 0 45 -6t62 -18 q37 -14 53 -29q23 -18 23 -39q0 -10 -2.5 -14t-6.5 -17l-8 -16q-6 -12 -12 -26.5t-12 -26.5l-5.5 -10.5t-3.5 -8.5l-2 -4q-2 -4 -4 -6q-4 -4 -12 -4h-4q-2 0 -12 10l-48 37l-51 33q-31 18 -53 26q-25 8 -57 9q-68 0 -115 -19q-45 -18 -76 -49q-35 -35 -47 -68 q-15 -40 -25 -79q-10 -45 -10 -80q0 -14 -1 -37t-1 -31v-291q0 -6 4 -6l2 -1q2 -1 4 -1h195q31 0 37 -4q10 -6 12 -21q8 -27 10 -43q2 -12 2 -40q0 -16 -4 -19q-8 -4 -20 -4h-227h-9q-6 0 -6 -8v-588q0 -43 22.5 -71.5t57.5 -43.5q41 -16 80 -22q43 -6 88 -6q18 -4 18 -13 q0 -6 -2 -10q-4 -6 -16 -6h-549q-8 2 -8 16z" />
<glyph unicode="&#xfb02;" horiz-adv-x="1144" d="M645 16q0 8 11 13q14 8 37 10q14 2 47 14q23 8 43 33q16 18 16 66v1247q0 25 -12 37q-16 16 -33 20l-43 12q-14 2 -43 11q-8 4 -10 6q-4 4 -4 14q0 2 4 10q2 6 10 11l256 118l4 2l4 2q2 2 6 3q18 0 19 -23v-1470q0 -47 16 -66q20 -25 43 -33q35 -12 47 -14q23 -2 37 -10 q10 -4 10 -13q0 -12 -10 -16h-444q-11 4 -11 16zM41 16q0 10 8 13q14 8 37 10q16 2 49 14q18 6 41 33q18 20 19 66v606q0 10 -13 10h-108q-6 0 -23 8q-10 6 -10 23q0 12 10 16l29 14q6 2 19.5 5.5t17.5 5.5q25 6 39 14q12 6 28 18q10 8 11 27v33q0 82 14 201q12 98 47 190 q33 86 94 164q57 72 152 119q66 33 115 49t118 16q14 0 45 -6t62 -18q37 -14 53 -29q23 -18 23 -39q0 -10 -2.5 -14t-6.5 -17l-8 -16q-6 -12 -12 -26.5t-12 -26.5l-5.5 -10.5t-3.5 -8.5l-2 -4q-2 -4 -4 -6q-4 -4 -12 -4h-4q-2 0 -12 10l-48 37l-51 33q-31 18 -53 26 q-25 8 -57 9q-68 0 -115 -19q-45 -18 -76 -49q-35 -35 -47 -68q-15 -40 -25 -79q-10 -45 -10 -80q0 -14 -1 -37t-1 -31v-291q0 -6 4 -6l2 -1q2 -1 4 -1h195q31 0 37 -4q10 -6 12 -21q8 -27 10 -43q2 -12 2 -40q0 -16 -4 -19q-8 -4 -20 -4h-227h-9q-6 0 -6 -8v-588 q0 -43 22.5 -71.5t57.5 -43.5q41 -16 80 -22q43 -6 88 -6q18 -4 18 -13q0 -6 -2 -10q-4 -6 -16 -6h-549q-8 2 -8 16z" />
<glyph unicode="&#xfb03;" horiz-adv-x="1822" d="M1306 16q0 8 11 13q14 8 36 10q16 2 50 14q18 6 41 33q18 20 18 66v530q0 25 -12 37q-16 16 -33 20q-29 8 -43 11q-4 0 -45 12q-2 0 -5 1t-5 3t-2 14q0 6 2 10.5t12 10.5l256 121l4 2l4 2q2 2 6 2q16 0 17 -25v-751q0 -45 18 -66q23 -27 41 -33q33 -12 49 -14 q23 -2 37 -10q10 -4 10 -13q0 -12 -10 -16h-446q-11 4 -11 16zM1421 1307q0 46 31 73q29 27 76 27q18 0 34 -8q18 -9 31 -25q18 -23 21 -31q8 -25 8 -37t-8 -36q-4 -12 -21 -33q-8 -10 -29 -20q-16 -8 -34 -9q-45 0 -78 27q-31 25 -31 72zM666 16q0 10 8 13q14 8 37 10 q16 2 49 14q18 6 41 33q18 20 19 66v606q0 10 -13 10h-108q-6 0 -23 8q-10 6 -10 23q0 12 10 16l29 14q6 2 19.5 5.5t17.5 5.5q25 6 39 14q12 6 28 18q10 8 11 27v33q0 82 14 201q12 98 47 190q33 86 94 164q57 72 152 119q66 33 115 49t118 16q14 0 45 -6t62 -18 q37 -14 53 -29q23 -18 23 -39q0 -10 -2.5 -14t-6.5 -17l-8 -16q-6 -12 -12 -26.5t-12 -26.5l-5.5 -10.5t-3.5 -8.5l-2 -4q-2 -4 -4 -6q-4 -4 -12 -4h-4q-2 0 -12 10l-48 37l-51 33q-31 18 -53 26q-25 8 -57 9q-68 0 -115 -19q-45 -18 -76 -49q-35 -35 -47 -68 q-15 -40 -25 -79q-10 -45 -10 -80q0 -14 -1 -37t-1 -31v-291q0 -6 4 -6l2 -1q2 -1 4 -1h195q31 0 37 -4q10 -6 12 -21q8 -27 10 -43q2 -12 2 -40q0 -16 -4 -19q-8 -4 -20 -4h-227h-9q-6 0 -6 -8v-588q0 -43 22.5 -71.5t57.5 -43.5q41 -16 80 -22q43 -6 88 -6q18 -4 18 -13 q0 -6 -2 -10q-4 -6 -16 -6h-549q-8 2 -8 16zM41 16q0 10 8 13q14 8 37 10q16 2 49 14q18 6 41 33q18 20 19 66v606q0 10 -13 10h-108q-6 0 -23 8q-10 6 -10 23q0 12 10 16l29 14q6 2 19.5 5.5t17.5 5.5q25 6 39 14q12 6 28 18q10 8 11 27v33q0 82 14 201q12 98 47 190 q33 86 94 164q57 72 152 119q66 33 115 49t118 16q14 0 45 -6t62 -18q37 -14 53 -29q23 -18 23 -39q0 -10 -2.5 -14t-6.5 -17l-8 -16q-6 -12 -12 -26.5t-12 -26.5l-5.5 -10.5t-3.5 -8.5l-2 -4q-2 -4 -4 -6q-4 -4 -12 -4h-4q-2 0 -12 10l-48 37l-51 33q-31 18 -53 26 q-25 8 -57 9q-68 0 -115 -19q-45 -18 -76 -49q-35 -35 -47 -68q-15 -40 -25 -79q-10 -45 -10 -80q0 -14 -1 -37t-1 -31v-291q0 -6 4 -6l2 -1q2 -1 4 -1h195q31 0 37 -4q10 -6 12 -21q8 -27 10 -43q2 -12 2 -40q0 -16 -4 -19q-8 -4 -20 -4h-227h-9q-6 0 -6 -8v-588 q0 -43 22.5 -71.5t57.5 -43.5q41 -16 80 -22q43 -6 88 -6q18 -4 18 -13q0 -6 -2 -10q-4 -6 -16 -6h-549q-8 2 -8 16z" />
<glyph unicode="&#xfb04;" horiz-adv-x="1767" d="M1267 16q0 8 11 13q14 8 37 10q14 2 47 14q23 8 43 33q16 18 16 66v1247q0 25 -12 37q-16 16 -33 20l-43 12q-14 2 -43 11q-8 4 -10 6q-4 4 -4 14q0 2 4 10q2 6 10 11l256 118l4 2l4 2q2 2 6 3q18 0 19 -23v-1470q0 -47 16 -66q20 -25 43 -33q35 -12 47 -14q23 -2 37 -10 q10 -4 10 -13q0 -12 -10 -16h-444q-11 4 -11 16zM666 16q0 10 8 13q14 8 37 10q16 2 49 14q18 6 41 33q18 20 19 66v606q0 10 -13 10h-108q-6 0 -23 8q-10 6 -10 23q0 12 10 16l29 14q6 2 19.5 5.5t17.5 5.5q25 6 39 14q12 6 28 18q10 8 11 27v33q0 82 14 201q12 98 47 190 q33 86 94 164q57 72 152 119q66 33 115 49t118 16q14 0 45 -6t62 -18q37 -14 53 -29q23 -18 23 -39q0 -10 -2.5 -14t-6.5 -17l-8 -16q-6 -12 -12 -26.5t-12 -26.5l-5.5 -10.5t-3.5 -8.5l-2 -4q-2 -4 -4 -6q-4 -4 -12 -4h-4q-2 0 -12 10l-48 37l-51 33q-31 18 -53 26 q-25 8 -57 9q-68 0 -115 -19q-45 -18 -76 -49q-35 -35 -47 -68q-15 -40 -25 -79q-10 -45 -10 -80q0 -14 -1 -37t-1 -31v-291q0 -6 4 -6l2 -1q2 -1 4 -1h195q31 0 37 -4q10 -6 12 -21q8 -27 10 -43q2 -12 2 -40q0 -16 -4 -19q-8 -4 -20 -4h-227h-9q-6 0 -6 -8v-588 q0 -43 22.5 -71.5t57.5 -43.5q41 -16 80 -22q43 -6 88 -6q18 -4 18 -13q0 -6 -2 -10q-4 -6 -16 -6h-549q-8 2 -8 16zM41 16q0 10 8 13q14 8 37 10q16 2 49 14q18 6 41 33q18 20 19 66v606q0 10 -13 10h-108q-6 0 -23 8q-10 6 -10 23q0 12 10 16l29 14q6 2 19.5 5.5t17.5 5.5 q25 6 39 14q12 6 28 18q10 8 11 27v33q0 82 14 201q12 98 47 190q33 86 94 164q57 72 152 119q66 33 115 49t118 16q14 0 45 -6t62 -18q37 -14 53 -29q23 -18 23 -39q0 -10 -2.5 -14t-6.5 -17l-8 -16q-6 -12 -12 -26.5t-12 -26.5l-5.5 -10.5t-3.5 -8.5l-2 -4q-2 -4 -4 -6 q-4 -4 -12 -4h-4q-2 0 -12 10l-48 37l-51 33q-31 18 -53 26q-25 8 -57 9q-68 0 -115 -19q-45 -18 -76 -49q-35 -35 -47 -68q-15 -40 -25 -79q-10 -45 -10 -80q0 -14 -1 -37t-1 -31v-291q0 -6 4 -6l2 -1q2 -1 4 -1h195q31 0 37 -4q10 -6 12 -21q8 -27 10 -43q2 -12 2 -40 q0 -16 -4 -19q-8 -4 -20 -4h-227h-9q-6 0 -6 -8v-588q0 -43 22.5 -71.5t57.5 -43.5q41 -16 80 -22q43 -6 88 -6q18 -4 18 -13q0 -6 -2 -10q-4 -6 -16 -6h-549q-8 2 -8 16z" />
</font>
</defs>
</svg>
